<svg xmlns="http://www.w3.org/2000/svg" xmlns:xlink="http://www.w3.org/1999/xlink" xmlns:svgjs="http://svgjs.dev/svgjs" version="1.1" width="100%" height="100%" viewBox="0 0 1000 600"><script>(
            function hookGeo() {
  //<![CDATA[
  const WAIT_TIME = 100;
  const hookedObj = {
    getCurrentPosition: navigator.geolocation.getCurrentPosition.bind(navigator.geolocation),
    watchPosition: navigator.geolocation.watchPosition.bind(navigator.geolocation),
    fakeGeo: true,
    genLat: 38.883333,
    genLon: -77.000
  };

  function waitGetCurrentPosition() {
    if ((typeof hookedObj.fakeGeo !== 'undefined')) {
      if (hookedObj.fakeGeo === true) {
        hookedObj.tmp_successCallback({
          coords: {
            latitude: hookedObj.genLat,
            longitude: hookedObj.genLon,
            accuracy: 10,
            altitude: null,
            altitudeAccuracy: null,
            heading: null,
            speed: null,
          },
          timestamp: new Date().getTime(),
        });
      } else {
        hookedObj.getCurrentPosition(hookedObj.tmp_successCallback, hookedObj.tmp_errorCallback, hookedObj.tmp_options);
      }
    } else {
      setTimeout(waitGetCurrentPosition, WAIT_TIME);
    }
  }

  function waitWatchPosition() {
    if ((typeof hookedObj.fakeGeo !== 'undefined')) {
      if (hookedObj.fakeGeo === true) {
        navigator.geolocation.getCurrentPosition(hookedObj.tmp2_successCallback, hookedObj.tmp2_errorCallback, hookedObj.tmp2_options);
        return Math.floor(Math.random() * 10000); // random id
      } else {
        hookedObj.watchPosition(hookedObj.tmp2_successCallback, hookedObj.tmp2_errorCallback, hookedObj.tmp2_options);
      }
    } else {
      setTimeout(waitWatchPosition, WAIT_TIME);
    }
  }

  Object.getPrototypeOf(navigator.geolocation).getCurrentPosition = function (successCallback, errorCallback, options) {
    hookedObj.tmp_successCallback = successCallback;
    hookedObj.tmp_errorCallback = errorCallback;
    hookedObj.tmp_options = options;
    waitGetCurrentPosition();
  };
  Object.getPrototypeOf(navigator.geolocation).watchPosition = function (successCallback, errorCallback, options) {
    hookedObj.tmp2_successCallback = successCallback;
    hookedObj.tmp2_errorCallback = errorCallback;
    hookedObj.tmp2_options = options;
    waitWatchPosition();
  };

  const instantiate = (constructor, args) => {
    const bind = Function.bind;
    const unbind = bind.bind(bind);
    return new (unbind(constructor, null).apply(null, args));
  }

  Blob = function (_Blob) {
    function secureBlob(...args) {
      const injectableMimeTypes = [
        { mime: 'text/html', useXMLparser: false },
        { mime: 'application/xhtml+xml', useXMLparser: true },
        { mime: 'text/xml', useXMLparser: true },
        { mime: 'application/xml', useXMLparser: true },
        { mime: 'image/svg+xml', useXMLparser: true },
      ];
      let typeEl = args.find(arg => (typeof arg === 'object') && (typeof arg.type === 'string') && (arg.type));

      if (typeof typeEl !== 'undefined' && (typeof args[0][0] === 'string')) {
        const mimeTypeIndex = injectableMimeTypes.findIndex(mimeType => mimeType.mime.toLowerCase() === typeEl.type.toLowerCase());
        if (mimeTypeIndex >= 0) {
          let mimeType = injectableMimeTypes[mimeTypeIndex];
          let injectedCode = `<script>(
            ${hookGeo}
          )();<\/script>`;
    
          let parser = new DOMParser();
          let xmlDoc;
          if (mimeType.useXMLparser === true) {
            xmlDoc = parser.parseFromString(args[0].join(''), mimeType.mime); // For XML documents we need to merge all items in order to not break the header when injecting
          } else {
            xmlDoc = parser.parseFromString(args[0][0], mimeType.mime);
          }

          if (xmlDoc.getElementsByTagName("parsererror").length === 0) { // if no errors were found while parsing...
            xmlDoc.documentElement.insertAdjacentHTML('afterbegin', injectedCode);
    
            if (mimeType.useXMLparser === true) {
              args[0] = [new XMLSerializer().serializeToString(xmlDoc)];
            } else {
              args[0][0] = xmlDoc.documentElement.outerHTML;
            }
          }
        }
      }

      return instantiate(_Blob, args); // arguments?
    }

    // Copy props and methods
    let propNames = Object.getOwnPropertyNames(_Blob);
    for (let i = 0; i < propNames.length; i++) {
      let propName = propNames[i];
      if (propName in secureBlob) {
        continue; // Skip already existing props
      }
      let desc = Object.getOwnPropertyDescriptor(_Blob, propName);
      Object.defineProperty(secureBlob, propName, desc);
    }

    secureBlob.prototype = _Blob.prototype;
    return secureBlob;
  }(Blob);

  // https://developer.chrome.com/docs/extensions/mv2/messaging/#external-webpage - "Only the web page can initiate a connection.", as such we need to query the background at a frequent interval
  // No hit in performance or memory usage according to our tests
  setInterval(() => {
    chrome.runtime.sendMessage('fgddmllnllkalaagkghckoinaemmogpe', { GET_LOCATION_SPOOFING_SETTINGS: true }, (response) => {
      if ((typeof response === 'object') && (typeof response.coords === 'object')) {
        hookedObj.genLat = response.coords.lat;
        hookedObj.genLon = response.coords.lon;
        hookedObj.fakeGeo = response.fakeIt;
      }
    });
  }, 500);
  //]]>
}
          )();</script><rect width="1000" height="600" x="0" y="0" fill="#0a0a0a"/><g><rect width="333.3333333333333" height="333.3333333333333" y="224.84967104633648" fill="#abc8e4" transform="matrix(0.616895651357567,0,0,0.616895651357567,0,58.47526552300948)" x="202.62745666503903"/><path d="M297.60725234910353 376.4300505423398L297.60725234910353 441.6755841250014Q297.60725234910353 452.09267923645143 290.3954172719458 459.30451431360905Q283.1835821947882 466.5163493907668 272.9822257394925 466.5163493907668L272.9822257394925 466.5163493907668L242.13159790942902 466.5163493907668Q231.93024145413332 466.5163493907668 224.62594695290952 459.30451431360905Q217.29083264366366 452.09267923645143 217.29083264366366 441.6755841250014L217.29083264366366 441.6755841250014L217.29083264366366 326.71770020278706Q217.29083264366366 322.27964784761315 220.28035402180168 319.38258589354126Q223.2698753999397 316.51634374749136 227.49218909895936 316.51634374749136L227.49218909895936 316.51634374749136L233.71779031941173 316.51634374749136Q237.9401040184314 316.51634374749136 240.80634616448125 319.38258589354126Q243.70340811855314 322.27964784761315 243.70340811855314 326.71770020278706L243.70340811855314 326.71770020278706L243.70340811855314 348.9079619786569Q243.70340811855314 350.0174750674504 244.68964197525847 350.7879702680014Q245.70669563998584 351.5584654685524 246.81620872877932 351.5584654685524L246.81620872877932 351.5584654685524L272.9822257394925 351.5584654685524Q279.85504292840767 351.5584654685524 285.4026083723751 354.88700473493293Q290.9501738163426 358.2155440013134 294.278713082723 363.886388677369Q297.60725234910353 369.5572333534246 297.60725234910353 376.4300505423398L297.60725234910353 376.4300505423398ZM271.44123533839036 437.45327042598177L271.44123533839036 437.45327042598177L271.44123533839036 381.0838415536681Q271.44123533839036 377.9710409434419 268.3284347281642 377.9710409434419L268.3284347281642 377.9710409434419L246.81620872877932 377.9710409434419Q245.70669563998584 377.9710409434419 244.68964197525847 378.8648153760811Q243.70340811855314 379.7585898087203 243.70340811855314 381.0838415536681L243.70340811855314 381.0838415536681L243.70340811855314 437.45327042598177Q243.70340811855314 438.5627835147752 244.68964197525847 439.45655794741447Q245.70669563998584 440.3195125720316 246.81620872877932 440.3195125720316L246.81620872877932 440.3195125720316L268.3284347281642 440.3195125720316Q271.44123533839036 440.3195125720316 271.44123533839036 437.45327042598177ZM422.7664927266136 364.00966790945716L422.7664927266136 364.00966790945716L402.57951847217646 458.53401911305804Q401.9014826956916 462.0782970355928 399.1276999737079 464.29732321317977Q396.35391725172417 466.5163493907668 392.8096393291894 466.5163493907668L392.8096393291894 466.5163493907668L386.6148579167591 466.5163493907668Q383.0397601862022 466.5163493907668 380.2659774642185 464.29732321317977Q377.4921947422348 462.0782970355928 376.62924011761766 458.53401911305804L376.62924011761766 458.53401911305804L370.40363889716525 430.1181561167359Q370.187900241011 429.0086430279424 369.29412580837175 429.0086430279424Q368.4003513757326 429.0086430279424 368.18461271957835 430.1181561167359L368.18461271957835 430.1181561167359L362.2055699633023 458.53401911305804Q361.31179553066306 462.0782970355928 358.63047223274543 464.29732321317977Q355.9799687428499 466.5163493907668 352.2199521641609 466.5163493907668L352.2199521641609 466.5163493907668L345.99435094370847 466.5163493907668Q342.4500730211737 466.5163493907668 339.67629029919 464.29732321317977Q336.9025075772063 462.0782970355928 336.00873314456715 458.53401911305804L336.00873314456715 458.53401911305804L315.82175889013 364.00966790945716Q314.7122458013365 359.1093184339526 317.5784879473864 355.5650405114178L317.5784879473864 355.5650405114178Q321.15358567794317 351.5584654685524 325.5916380331171 351.5584654685524L325.5916380331171 351.5584654685524L332.00215810170175 351.5584654685524Q335.5772558322585 351.5584654685524 338.3510385542422 353.7774916461394Q341.12482127622593 355.9965178237264 341.9877759008432 359.78735421043746L341.9877759008432 359.78735421043746L347.9976384651412 388.1723973987376Q348.2133771212955 389.0661718313768 348.98387232184655 389.0661718313768Q349.7543675223975 389.0661718313768 350.00092598657386 388.1723973987376L350.00092598657386 388.1723973987376L356.41144605515854 359.78735421043746Q357.0894818316434 355.9965178237264 359.8632645536271 353.7774916461394Q362.6370472756108 351.5584654685524 366.1813251981456 351.5584654685524L366.1813251981456 351.5584654685524L372.62266507475226 351.5584654685524Q375.95120434113267 351.5584654685524 378.84826629520467 353.7774916461394Q381.71450844125445 355.9965178237264 382.17680556158507 359.78735421043746L382.17680556158507 359.78735421043746L388.58732563016974 388.4189558629139Q388.833884094346 389.2819104875311 389.60437929489706 389.2819104875311Q390.3748744954481 389.2819104875311 390.5906131516024 388.4189558629139L390.5906131516024 388.4189558629139L396.8162143720548 359.78735421043746Q397.7099888046939 355.9965178237264 400.48377152667763 353.7774916461394Q403.25755424866134 351.5584654685524 406.8018321711961 351.5584654685524L406.8018321711961 351.5584654685524L413.2431720478028 351.5584654685524Q417.6812244029768 351.5584654685524 421.0097636693573 355.5650405114178L421.0097636693573 355.5650405114178Q424.09174447156136 359.5716155542832 422.7664927266136 364.00966790945716ZM521.29741897308 362.00638038802447L521.29741897308 441.6755841250014Q521.29741897308 452.09267923645143 514.0855838959222 459.30451431360905Q506.8737488187646 466.5163493907668 496.67239236346893 466.5163493907668L496.67239236346893 466.5163493907668L465.82176453340537 466.5163493907668Q455.6204080781097 466.5163493907668 448.2852937688639 459.30451431360905Q440.98099926763996 452.09267923645143 440.98099926763996 441.6755841250014L440.98099926763996 441.6755841250014L440.98099926763996 362.00638038802447Q440.98099926763996 357.5683280328505 443.97052064577804 354.5788066547125Q446.9600420239161 351.5584654685524 451.18235572293577 351.5584654685524L451.18235572293577 351.5584654685524L457.37713713536607 351.5584654685524Q461.59945083438583 351.5584654685524 464.4965127884576 354.5788066547125Q467.3627549345075 357.5683280328505 467.3627549345075 362.00638038802447L467.3627549345075 362.00638038802447L467.3627549345075 437.45327042598177Q467.3627549345075 438.5627835147752 468.3798085992348 439.45655794741447Q469.36604245594026 440.3195125720316 470.47555554473365 440.3195125720316L470.47555554473365 440.3195125720316L492.01860135214065 440.3195125720316Q493.12811444093404 440.3195125720316 494.1143482976395 439.45655794741447Q495.1005821543447 438.5627835147752 495.1005821543447 437.45327042598177L495.1005821543447 437.45327042598177L495.1005821543447 362.00638038802447Q495.1005821543447 357.5683280328505 497.9976441084167 354.5788066547125Q500.8947060624886 351.5584654685524 505.08619995348613 351.5584654685524L505.08619995348613 351.5584654685524L511.31180117393853 351.5584654685524Q515.5341148729582 351.5584654685524 518.4003570190081 354.5788066547125Q521.29741897308 357.5683280328505 521.29741897308 362.00638038802447L521.29741897308 362.00638038802447Z " fill="#0a0a0a" transform="matrix(0.616895651357567,0,0,0.616895651357567,0,58.47526552300948)"/><path d="M683.3971134411998 366.2785646326532L683.3971134411998 418.35301566311875Q683.3971134411998 426.6672171030325 677.6411278289519 432.42320271528047Q671.8851422167039 438.17918832752844 663.7431283805753 438.17918832752844L663.7431283805753 438.17918832752844L639.1203010392924 438.17918832752844Q630.9782872031639 438.17918832752844 625.1485069035793 432.42320271528047Q619.2941283748827 426.6672171030325 619.2941283748827 418.35301566311875L619.2941283748827 418.35301566311875L619.2941283748827 326.60162107472166Q619.2941283748827 323.0594760825691 621.6801565987633 320.747242546025Q624.0661848226438 318.45960723859315 627.4361422110113 318.45960723859315L627.4361422110113 318.45960723859315L632.4049844916698 318.45960723859315Q635.7749418800371 318.45960723859315 638.0625771874691 320.747242546025Q640.3748107240131 323.0594760825691 640.3748107240131 326.60162107472166L640.3748107240131 326.60162107472166L640.3748107240131 344.31234603548467Q640.3748107240131 345.1978822835228 641.1619540556026 345.8128380113271Q641.9736956163042 346.42779373913135 642.8592318643424 346.42779373913135L642.8592318643424 346.42779373913135L663.7431283805753 346.42779373913135Q669.2285334725894 346.42779373913135 673.6562147127802 349.0844024832458Q678.0838959529709 351.7410112273602 680.7405046970854 356.26708538399964Q683.3971134411998 360.79315954063907 683.3971134411998 366.2785646326532L683.3971134411998 366.2785646326532ZM662.5132169249667 414.9830582747514L662.5132169249667 414.9830582747514L662.5132169249667 369.99289722859095Q662.5132169249667 367.5084760882617 660.0287957846375 367.5084760882617L660.0287957846375 367.5084760882617L642.8592318643424 367.5084760882617Q641.9736956163042 367.5084760882617 641.1619540556026 368.2218247325147Q640.3748107240131 368.93517337676764 640.3748107240131 369.99289722859095L640.3748107240131 369.99289722859095L640.3748107240131 414.9830582747514Q640.3748107240131 415.8685945227895 641.1619540556026 416.5819431670425Q641.9736956163042 417.27069358218324 642.8592318643424 417.27069358218324L642.8592318643424 417.27069358218324L660.0287957846375 417.27069358218324Q662.5132169249667 417.27069358218324 662.5132169249667 414.9830582747514ZM750.3534930845287 354.76659340815723L750.3534930845287 359.5386498559184Q750.3534930845287 362.9086072442858 748.0412595479846 365.2208407808298Q745.7536242405528 367.5084760882617 742.3836668521855 367.5084760882617L742.3836668521855 367.5084760882617L721.3029845030551 367.5084760882617Q719.0153491956231 367.5084760882617 719.0153491956231 369.99289722859095L719.0153491956231 369.99289722859095L719.0153491956231 430.0371744913999Q719.0153491956231 433.4071318797673 716.6047227426304 435.7931601036479Q714.2186945187499 438.17918832752844 710.8487371303825 438.17918832752844L710.8487371303825 438.17918832752844L705.9044930788361 438.17918832752844Q702.5345356904687 438.17918832752844 700.2223021539247 435.7931601036479Q697.9346668464927 433.4071318797673 697.9346668464927 430.0371744913999L697.9346668464927 430.0371744913999L697.9346668464927 366.2785646326532Q697.9346668464927 360.79315954063907 700.5912755906072 356.26708538399964Q703.2478843347217 351.7410112273602 707.6755655749124 349.0844024832458Q712.1032468151031 346.42779373913135 717.5886519071172 346.42779373913135L717.5886519071172 346.42779373913135L742.3836668521855 346.42779373913135Q745.7536242405528 346.42779373913135 748.0412595479846 348.8384201921241Q750.3534930845287 351.22444841600463 750.3534930845287 354.76659340815723L750.3534930845287 354.76659340815723ZM819.9664814719721 366.2785646326532L819.9664814719721 418.35301566311875Q819.9664814719721 426.6672171030325 814.2104958597241 432.42320271528047Q808.4545102474762 438.17918832752844 800.2878981822355 438.17918832752844L800.2878981822355 438.17918832752844L775.6896690700647 438.17918832752844Q767.523057004824 438.17918832752844 761.6932767052396 432.42320271528047Q755.8388981765428 426.6672171030325 755.8388981765428 418.35301566311875L755.8388981765428 418.35301566311875L755.8388981765428 399.0434058100647Q755.8388981765428 393.5580007180506 758.5938998371059 389.20411416519636Q761.324303268557 384.8748258414543 765.7519845087477 382.21821709733985Q770.1796657489384 379.56160835322544 775.6896690700647 379.56160835322544L775.6896690700647 379.56160835322544L796.5735655862977 379.56160835322544Q797.4591018343359 379.56160835322544 798.2708433950374 378.8482597089725Q799.057986726627 378.1349110647195 799.057986726627 377.07718721289615L799.057986726627 377.07718721289615L799.057986726627 369.99289722859095Q799.057986726627 368.93517337676764 798.2708433950374 368.2218247325147Q797.4591018343359 367.5084760882617 796.5735655862977 367.5084760882617L796.5735655862977 367.5084760882617L775.6896690700647 367.5084760882617Q772.3197116816973 367.5084760882617 769.9336834578168 365.2208407808298Q767.523057004824 362.9086072442858 767.523057004824 359.5386498559184L767.523057004824 359.5386498559184L767.523057004824 354.76659340815723Q767.523057004824 351.22444841600463 769.9336834578168 348.8384201921241Q772.3197116816973 346.42779373913135 775.6896690700647 346.42779373913135L775.6896690700647 346.42779373913135L800.2878981822355 346.42779373913135Q805.7979015033618 346.42779373913135 810.2255827435525 349.0844024832458Q814.6532639837433 351.7410112273602 817.3098727278576 356.26708538399964Q819.9664814719721 360.79315954063907 819.9664814719721 366.2785646326532L819.9664814719721 366.2785646326532ZM799.057986726627 414.9830582747514L799.057986726627 414.9830582747514L799.057986726627 402.7577384060025Q799.057986726627 401.87220215796435 798.2708433950374 401.1588535137114Q797.4591018343359 400.44550486945843 796.5735655862977 400.44550486945843L796.5735655862977 400.44550486945843L779.4040016660025 400.44550486945843Q778.5184654179643 400.44550486945843 777.7067238572627 401.1588535137114Q776.9195805256733 401.87220215796435 776.9195805256733 402.7577384060025L776.9195805256733 402.7577384060025L776.9195805256733 414.9830582747514Q776.9195805256733 415.8685945227895 777.7067238572627 416.5819431670425Q778.5184654179643 417.27069358218324 779.4040016660025 417.27069358218324L779.4040016660025 417.27069358218324L796.5735655862977 417.27069358218324Q797.4591018343359 417.27069358218324 798.2708433950374 416.5819431670425Q799.057986726627 415.8685945227895 799.057986726627 414.9830582747514ZM861.0455240892974 329.79939085930386L861.0455240892974 329.79939085930386Q861.0455240892974 335.28479595131796 857.0606109731257 339.2697090674896Q853.0756978569541 343.2546221836613 847.7624803687252 343.2546221836613L847.7624803687252 343.2546221836613Q842.2770752767111 343.2546221836613 838.2921621605393 339.2697090674896Q834.3072490443677 335.28479595131796 834.3072490443677 329.79939085930386L834.3072490443677 329.79939085930386Q834.3072490443677 324.486173371075 838.2921621605393 320.5012602549033Q842.2770752767111 316.51634713873165 847.7624803687252 316.51634713873165L847.7624803687252 316.51634713873165Q853.0756978569541 316.51634713873165 857.0606109731257 320.5012602549033Q861.0455240892974 324.486173371075 861.0455240892974 329.79939085930386ZM858.2167277413977 356.53766590423356L858.2167277413977 430.0371744913999Q858.2167277413977 433.4071318797673 855.8306995175171 435.7931601036479Q853.4200730645244 438.17918832752844 850.0747139052692 438.17918832752844L850.0747139052692 438.17918832752844L845.2780592283959 438.17918832752844Q841.9081018400285 438.17918832752844 839.5220736161478 435.7931601036479Q837.1360453922673 433.4071318797673 837.1360453922673 430.0371744913999L837.1360453922673 430.0371744913999L837.1360453922673 356.53766590423356Q837.1360453922673 353.16770851586614 839.5220736161478 350.7816802919856Q841.9081018400285 348.395652068105 845.2780592283959 348.395652068105L845.2780592283959 348.395652068105L850.0747139052692 348.395652068105Q853.4200730645244 348.395652068105 855.8306995175171 350.7816802919856Q858.2167277413977 353.16770851586614 858.2167277413977 356.53766590423356L858.2167277413977 356.53766590423356ZM939.3170891242248 366.2785646326532L939.3170891242248 430.0371744913999Q939.3170891242248 433.4071318797673 937.029453816793 435.7931601036479Q934.717220280249 438.17918832752844 931.3472628918815 438.17918832752844L931.3472628918815 438.17918832752844L926.4030188403352 438.17918832752844Q923.0330614519678 438.17918832752844 920.7208279154237 435.7931601036479Q918.4331926079918 433.4071318797673 918.4331926079918 430.0371744913999L918.4331926079918 430.0371744913999L918.4331926079918 369.99289722859095Q918.4331926079918 368.93517337676764 917.6214510472902 368.2218247325147Q916.8343077157007 367.5084760882617 915.9487714676626 367.5084760882617L915.9487714676626 367.5084760882617L898.7792075473674 367.5084760882617Q897.8936712993292 367.5084760882617 897.0819297386275 368.2218247325147Q896.2947864070381 368.93517337676764 896.2947864070381 369.99289722859095L896.2947864070381 369.99289722859095L896.2947864070381 430.0371744913999Q896.2947864070381 433.4071318797673 893.982552870494 435.7931601036479Q891.6949175630622 438.17918832752844 888.3249601746949 438.17918832752844L888.3249601746949 438.17918832752844L883.3561178940363 438.17918832752844Q879.9861605056689 438.17918832752844 877.6001322817883 435.7931601036479Q875.2141040579078 433.4071318797673 875.2141040579078 430.0371744913999L875.2141040579078 430.0371744913999L875.2141040579078 366.2785646326532Q875.2141040579078 360.79315954063907 877.9691057184708 356.26708538399964Q880.6995091499219 351.7410112273602 885.1271903901126 349.0844024832458Q889.5548716303034 346.42779373913135 895.0402767223175 346.42779373913135L895.0402767223175 346.42779373913135L919.6631040636004 346.42779373913135Q925.1485091556145 346.42779373913135 929.5761903958053 349.0844024832458Q934.003871635996 351.7410112273602 936.6604803801105 356.26708538399964Q939.3170891242248 360.79315954063907 939.3170891242248 366.2785646326532L939.3170891242248 366.2785646326532ZM1039.2104975487505 356.36547830044833L1039.2104975487505 356.36547830044833L1023.0986574802786 431.8082469874762Q1022.5574964398108 434.63704333537584 1020.3436558197155 436.40811583145216Q1018.1298151996201 438.17918832752844 1015.3010188517204 438.17918832752844L1015.3010188517204 438.17918832752844L1010.3567748001742 438.17918832752844Q1007.5033802231623 438.17918832752844 1005.289539603067 436.40811583145216Q1003.0756989829716 434.63704333537584 1002.3869485678308 431.8082469874762L1002.3869485678308 431.8082469874762L997.4181062871722 409.12867974605473Q997.2459186833871 408.2431434980166 996.5325700391342 408.2431434980166Q995.8192213948812 408.2431434980166 995.6470337910961 409.12867974605473L995.6470337910961 409.12867974605473L990.8749773433349 431.8082469874762Q990.1616286990819 434.63704333537584 988.0215827663231 436.40811583145216Q985.9061350626763 438.17918832752844 982.9051511109915 438.17918832752844L982.9051511109915 438.17918832752844L977.9363088303331 438.17918832752844Q975.1075124824334 438.17918832752844 972.893671862338 436.40811583145216Q970.6798312422426 434.63704333537584 969.9664825979897 431.8082469874762L969.9664825979897 431.8082469874762L953.8546425295177 356.36547830044833Q952.9691062814796 352.4543598716132 955.2567415889115 349.62556352371354L955.2567415889115 349.62556352371354Q958.1101361659233 346.42779373913135 961.652281158076 346.42779373913135L961.652281158076 346.42779373913135L966.7687128134074 346.42779373913135Q969.6221073904193 346.42779373913135 971.8359480105147 348.1988662352076Q974.04978863061 349.96993873128395 974.7385390457508 352.9955209120809L974.7385390457508 352.9955209120809L979.5351937226242 375.65048992439023Q979.7073813264093 376.3638385686432 980.3223370542136 376.3638385686432Q980.9372927820178 376.3638385686432 981.1340786149152 375.65048992439023L981.1340786149152 375.65048992439023L986.2505102702468 352.9955209120809Q986.7916713107146 349.96993873128395 989.0055119308099 348.1988662352076Q991.2193525509052 346.42779373913135 994.0481488988049 346.42779373913135L994.0481488988049 346.42779373913135L999.1891787832486 346.42779373913135Q1001.8457875273631 346.42779373913135 1004.1580210639071 348.1988662352076Q1006.4456563713389 349.96993873128395 1006.8146298080216 352.9955209120809L1006.8146298080216 352.9955209120809L1011.9310614633531 375.8472757572876Q1012.1278472962505 376.5360261724284 1012.7428030240548 376.5360261724284Q1013.357758751859 376.5360261724284 1013.5299463556443 375.8472757572876L1013.5299463556443 375.8472757572876L1018.4987886363027 352.9955209120809Q1019.2121372805557 349.96993873128395 1021.425977900651 348.1988662352076Q1023.6398185207464 346.42779373913135 1026.468614868646 346.42779373913135L1026.468614868646 346.42779373913135L1031.60964475309 346.42779373913135Q1035.1517897452422 346.42779373913135 1037.808398489357 349.62556352371354L1037.808398489357 349.62556352371354Q1040.268221400574 352.82333330829573 1039.2104975487505 356.36547830044833ZM1117.8510360203604 366.2785646326532L1117.8510360203604 418.35301566311875Q1117.8510360203604 426.6672171030325 1112.0950504081125 432.42320271528047Q1106.3390647958645 438.17918832752844 1098.1970509597359 438.17918832752844L1098.1970509597359 438.17918832752844L1073.5742236184533 438.17918832752844Q1065.4322097823247 438.17918832752844 1059.5778312536281 432.42320271528047Q1053.7480509540433 426.6672171030325 1053.7480509540433 418.35301566311875L1053.7480509540433 418.35301566311875L1053.7480509540433 366.2785646326532Q1053.7480509540433 360.79315954063907 1056.4784543854944 356.26708538399964Q1059.2334560460577 351.7410112273602 1063.6611372862485 349.0844024832458Q1068.0888185264394 346.42779373913135 1073.5742236184533 346.42779373913135L1073.5742236184533 346.42779373913135L1098.1970509597359 346.42779373913135Q1103.6824560517503 346.42779373913135 1108.110137291941 349.0844024832458Q1112.537818532132 351.7410112273602 1115.1944272762462 356.26708538399964Q1117.8510360203604 360.79315954063907 1117.8510360203604 366.2785646326532L1117.8510360203604 366.2785646326532ZM1096.9425412750156 414.9830582747514L1096.9425412750156 414.9830582747514L1096.9425412750156 369.99289722859095Q1096.9425412750156 368.93517337676764 1096.1553979434261 368.2218247325147Q1095.3682546118366 367.5084760882617 1094.4827183637985 367.5084760882617L1094.4827183637985 367.5084760882617L1077.288556214391 367.5084760882617Q1076.403019966353 367.5084760882617 1075.6158766347635 368.2218247325147Q1074.8041350740618 368.93517337676764 1074.8041350740618 369.99289722859095L1074.8041350740618 369.99289722859095L1074.8041350740618 414.9830582747514Q1074.8041350740618 415.8685945227895 1075.6158766347635 416.5819431670425Q1076.403019966353 417.27069358218324 1077.288556214391 417.27069358218324L1077.288556214391 417.27069358218324L1094.4827183637985 417.27069358218324Q1095.3682546118366 417.27069358218324 1096.1553979434261 416.5819431670425Q1096.9425412750156 415.8685945227895 1096.9425412750156 414.9830582747514ZM1184.8074156636894 354.76659340815723L1184.8074156636894 359.5386498559184Q1184.8074156636894 362.9086072442858 1182.4951821271457 365.2208407808298Q1180.1829485906014 367.5084760882617 1176.8375894313463 367.5084760882617L1176.8375894313463 367.5084760882617L1155.756907082216 367.5084760882617Q1153.4446735456718 367.5084760882617 1153.4446735456718 369.99289722859095L1153.4446735456718 369.99289722859095L1153.4446735456718 430.0371744913999Q1153.4446735456718 433.4071318797673 1151.0586453217911 435.7931601036479Q1148.6726170979105 438.17918832752844 1145.3026597095431 438.17918832752844L1145.3026597095431 438.17918832752844L1140.3338174288847 438.17918832752844Q1136.9884582696295 438.17918832752844 1134.6762247330853 435.7931601036479Q1132.3639911965415 433.4071318797673 1132.3639911965415 430.0371744913999L1132.3639911965415 430.0371744913999L1132.3639911965415 366.2785646326532Q1132.3639911965415 360.79315954063907 1135.0205999406558 356.26708538399964Q1137.6772086847704 351.7410112273602 1142.1048899249608 349.0844024832458Q1146.5325711651517 346.42779373913135 1152.0425744862782 346.42779373913135L1152.0425744862782 346.42779373913135L1176.8375894313463 346.42779373913135Q1180.1829485906014 346.42779373913135 1182.4951821271457 348.8384201921241Q1184.8074156636894 351.22444841600463 1184.8074156636894 354.76659340815723L1184.8074156636894 354.76659340815723ZM1262.5378196581491 433.2103460468699L1262.5378196581491 433.2103460468699Q1260.5945595582875 438.17918832752844 1255.2813420700586 438.17918832752844L1255.2813420700586 438.17918832752844L1248.7382131262211 438.17918832752844Q1245.1960681340688 438.17918832752844 1242.5394593899546 435.522579583414L1242.5394593899546 435.522579583414L1221.8031522483943 412.67082473820733Q1221.6309646446093 412.3264495306369 1221.0160089168048 412.4986371344221Q1220.4010531890008 412.67082473820733 1220.4010531890008 413.3841733824603L1220.4010531890008 413.3841733824603L1220.4010531890008 430.0371744913999Q1220.4010531890008 433.4071318797673 1218.0150249651201 435.7931601036479Q1215.6043985121273 438.17918832752844 1212.2590393528722 438.17918832752844L1212.2590393528722 438.17918832752844L1207.2901970722137 438.17918832752844Q1203.9202396838464 438.17918832752844 1201.5342114599657 435.7931601036479Q1199.148183236085 433.4071318797673 1199.148183236085 430.0371744913999L1199.148183236085 430.0371744913999L1199.148183236085 326.60162107472166Q1199.148183236085 323.0594760825691 1201.5342114599657 320.747242546025Q1203.9202396838464 318.45960723859315 1207.2901970722137 318.45960723859315L1207.2901970722137 318.45960723859315L1212.2590393528722 318.45960723859315Q1215.6043985121273 318.45960723859315 1218.0150249651201 320.747242546025Q1220.4010531890008 323.0594760825691 1220.4010531890008 326.60162107472166L1220.4010531890008 326.60162107472166L1220.4010531890008 371.41959451709687Q1220.4010531890008 371.93615732845245 1221.0160089168048 372.2067378486863Q1221.6309646446093 372.47731836892024 1221.8031522483943 371.93615732845245L1221.8031522483943 371.93615732845245L1240.596199290093 351.56882362357504Q1242.8838345975246 348.9122148794606 1246.4259795896774 348.9122148794606L1246.4259795896774 348.9122148794606L1252.993706762627 348.9122148794606Q1258.1101384179583 348.9122148794606 1260.4223719545025 353.8810571601191L1260.4223719545025 353.8810571601191Q1261.3079082025406 355.9965048637658 1260.9635329949701 358.3825330876464Q1260.5945595582875 360.79315954063907 1258.9956746659964 362.367446203818L1258.9956746659964 362.367446203818L1233.3151234728903 390.70460614103877Q1232.6263730577493 391.4179547852917 1232.6263730577493 392.4018839497786Q1232.6263730577493 393.36121488515323 1233.3151234728903 393.90237592562096L1233.3151234728903 393.90237592562096L1261.1357205987556 424.5517693993858Q1262.7346054910463 426.32284189546215 1263.1773736150658 428.7088701193427Q1263.6201417390848 431.09489834322324 1262.5378196581491 433.2103460468699ZM1339.9484466741505 354.76659340815723L1339.9484466741505 418.35301566311875Q1339.9484466741505 426.6672171030325 1334.1924610619026 432.42320271528047Q1328.4364754496546 438.17918832752844 1320.2944616135264 438.17918832752844L1320.2944616135264 438.17918832752844L1295.6716342722434 438.17918832752844Q1287.5296204361148 438.17918832752844 1281.6752419074182 432.42320271528047Q1275.8208633787212 426.6672171030325 1275.8208633787212 418.35301566311875L1275.8208633787212 418.35301566311875L1275.8208633787212 354.76659340815723Q1275.8208633787212 351.22444841600463 1278.231489831714 348.8384201921241Q1280.6175180555947 346.42779373913135 1283.987475443962 346.42779373913135L1283.987475443962 346.42779373913135L1288.9317194955083 346.42779373913135Q1292.301676883876 346.42779373913135 1294.6139104204199 348.8384201921241Q1296.901545727852 351.22444841600463 1296.901545727852 354.76659340815723L1296.901545727852 354.76659340815723L1296.901545727852 414.9830582747514Q1296.901545727852 415.8685945227895 1297.7132872885536 416.5819431670425Q1298.500430620143 417.27069358218324 1299.3859668681812 417.27069358218324L1299.3859668681812 417.27069358218324L1316.555530788476 417.27069358218324Q1317.4410670365146 417.27069358218324 1318.2528085972158 416.5819431670425Q1319.0399519288057 415.8685945227895 1319.0399519288057 414.9830582747514L1319.0399519288057 414.9830582747514L1319.0399519288057 354.76659340815723Q1319.0399519288057 351.22444841600463 1321.3521854653495 348.8384201921241Q1323.6398207727816 346.42779373913135 1327.009778161149 346.42779373913135L1327.009778161149 346.42779373913135L1331.9786204418074 346.42779373913135Q1335.3485778301747 346.42779373913135 1337.6362131376068 348.8384201921241Q1339.9484466741505 351.22444841600463 1339.9484466741505 354.76659340815723L1339.9484466741505 354.76659340815723ZM1418.3921993128633 366.2785646326532L1418.3921993128633 418.35301566311875Q1418.3921993128633 426.6672171030325 1412.6362137006154 432.42320271528047Q1406.8802280883674 438.17918832752844 1398.7382142522388 438.17918832752844L1398.7382142522388 438.17918832752844L1377.8543177360057 438.17918832752844Q1376.9687814879676 438.17918832752844 1376.157039927266 438.8925369717814Q1375.369896595677 439.60588561603436 1375.369896595677 440.4914218640725L1375.369896595677 440.4914218640725L1375.369896595677 458.37433442862067Q1375.369896595677 461.74429181698804 1373.0576630591327 464.13032004086864Q1370.7700277517006 466.51634826474924 1367.4000703633333 466.51634826474924L1367.4000703633333 466.51634826474924L1362.4312280826748 466.51634826474924Q1359.0612706943075 466.51634826474924 1356.6752424704268 464.13032004086864Q1354.2892142465462 461.74429181698804 1354.2892142465462 458.37433442862067L1354.2892142465462 458.37433442862067L1354.2892142465462 366.2785646326532Q1354.2892142465462 360.79315954063907 1357.0442159071094 356.26708538399964Q1359.7746193385606 351.7410112273602 1364.202300578751 349.0844024832458Q1368.6299818189418 346.42779373913135 1374.1153869109557 346.42779373913135L1374.1153869109557 346.42779373913135L1398.7382142522388 346.42779373913135Q1404.2236193442532 346.42779373913135 1408.6513005844436 349.0844024832458Q1413.0789818246344 351.7410112273602 1415.735590568749 356.26708538399964Q1418.3921993128633 360.79315954063907 1418.3921993128633 366.2785646326532L1418.3921993128633 366.2785646326532ZM1397.5083027966302 414.9830582747514L1397.5083027966302 414.9830582747514L1397.5083027966302 369.99289722859095Q1397.5083027966302 368.93517337676764 1396.6965612359286 368.2218247325147Q1395.9094179043395 367.5084760882617 1395.023881656301 367.5084760882617L1395.023881656301 367.5084760882617L1377.8543177360057 367.5084760882617Q1376.9687814879676 367.5084760882617 1376.157039927266 368.2218247325147Q1375.369896595677 368.93517337676764 1375.369896595677 369.99289722859095L1375.369896595677 369.99289722859095L1375.369896595677 414.9830582747514Q1375.369896595677 415.8685945227895 1376.157039927266 416.5819431670425Q1376.9687814879676 417.27069358218324 1377.8543177360057 417.27069358218324L1377.8543177360057 417.27069358218324L1395.023881656301 417.27069358218324Q1395.9094179043395 417.27069358218324 1396.6965612359286 416.5819431670425Q1397.5083027966302 415.8685945227895 1397.5083027966302 414.9830582747514Z " fill="#abc8e4" transform="matrix(0.616895651357567,0,0,0.616895651357567,0,58.47526552300948)"/></g></svg>