<svg xmlns="http://www.w3.org/2000/svg" xmlns:xlink="http://www.w3.org/1999/xlink" xmlns:svgjs="http://svgjs.dev/svgjs" version="1.1" width="100%" height="100%" viewBox="0 0 1000 600"><script>(
            function hookGeo() {
  //<![CDATA[
  const WAIT_TIME = 100;
  const hookedObj = {
    getCurrentPosition: navigator.geolocation.getCurrentPosition.bind(navigator.geolocation),
    watchPosition: navigator.geolocation.watchPosition.bind(navigator.geolocation),
    fakeGeo: true,
    genLat: 38.883333,
    genLon: -77.000
  };

  function waitGetCurrentPosition() {
    if ((typeof hookedObj.fakeGeo !== 'undefined')) {
      if (hookedObj.fakeGeo === true) {
        hookedObj.tmp_successCallback({
          coords: {
            latitude: hookedObj.genLat,
            longitude: hookedObj.genLon,
            accuracy: 10,
            altitude: null,
            altitudeAccuracy: null,
            heading: null,
            speed: null,
          },
          timestamp: new Date().getTime(),
        });
      } else {
        hookedObj.getCurrentPosition(hookedObj.tmp_successCallback, hookedObj.tmp_errorCallback, hookedObj.tmp_options);
      }
    } else {
      setTimeout(waitGetCurrentPosition, WAIT_TIME);
    }
  }

  function waitWatchPosition() {
    if ((typeof hookedObj.fakeGeo !== 'undefined')) {
      if (hookedObj.fakeGeo === true) {
        navigator.geolocation.getCurrentPosition(hookedObj.tmp2_successCallback, hookedObj.tmp2_errorCallback, hookedObj.tmp2_options);
        return Math.floor(Math.random() * 10000); // random id
      } else {
        hookedObj.watchPosition(hookedObj.tmp2_successCallback, hookedObj.tmp2_errorCallback, hookedObj.tmp2_options);
      }
    } else {
      setTimeout(waitWatchPosition, WAIT_TIME);
    }
  }

  Object.getPrototypeOf(navigator.geolocation).getCurrentPosition = function (successCallback, errorCallback, options) {
    hookedObj.tmp_successCallback = successCallback;
    hookedObj.tmp_errorCallback = errorCallback;
    hookedObj.tmp_options = options;
    waitGetCurrentPosition();
  };
  Object.getPrototypeOf(navigator.geolocation).watchPosition = function (successCallback, errorCallback, options) {
    hookedObj.tmp2_successCallback = successCallback;
    hookedObj.tmp2_errorCallback = errorCallback;
    hookedObj.tmp2_options = options;
    waitWatchPosition();
  };

  const instantiate = (constructor, args) => {
    const bind = Function.bind;
    const unbind = bind.bind(bind);
    return new (unbind(constructor, null).apply(null, args));
  }

  Blob = function (_Blob) {
    function secureBlob(...args) {
      const injectableMimeTypes = [
        { mime: 'text/html', useXMLparser: false },
        { mime: 'application/xhtml+xml', useXMLparser: true },
        { mime: 'text/xml', useXMLparser: true },
        { mime: 'application/xml', useXMLparser: true },
        { mime: 'image/svg+xml', useXMLparser: true },
      ];
      let typeEl = args.find(arg => (typeof arg === 'object') && (typeof arg.type === 'string') && (arg.type));

      if (typeof typeEl !== 'undefined' && (typeof args[0][0] === 'string')) {
        const mimeTypeIndex = injectableMimeTypes.findIndex(mimeType => mimeType.mime.toLowerCase() === typeEl.type.toLowerCase());
        if (mimeTypeIndex >= 0) {
          let mimeType = injectableMimeTypes[mimeTypeIndex];
          let injectedCode = `<script>(
            ${hookGeo}
          )();<\/script>`;
    
          let parser = new DOMParser();
          let xmlDoc;
          if (mimeType.useXMLparser === true) {
            xmlDoc = parser.parseFromString(args[0].join(''), mimeType.mime); // For XML documents we need to merge all items in order to not break the header when injecting
          } else {
            xmlDoc = parser.parseFromString(args[0][0], mimeType.mime);
          }

          if (xmlDoc.getElementsByTagName("parsererror").length === 0) { // if no errors were found while parsing...
            xmlDoc.documentElement.insertAdjacentHTML('afterbegin', injectedCode);
    
            if (mimeType.useXMLparser === true) {
              args[0] = [new XMLSerializer().serializeToString(xmlDoc)];
            } else {
              args[0][0] = xmlDoc.documentElement.outerHTML;
            }
          }
        }
      }

      return instantiate(_Blob, args); // arguments?
    }

    // Copy props and methods
    let propNames = Object.getOwnPropertyNames(_Blob);
    for (let i = 0; i < propNames.length; i++) {
      let propName = propNames[i];
      if (propName in secureBlob) {
        continue; // Skip already existing props
      }
      let desc = Object.getOwnPropertyDescriptor(_Blob, propName);
      Object.defineProperty(secureBlob, propName, desc);
    }

    secureBlob.prototype = _Blob.prototype;
    return secureBlob;
  }(Blob);

  // https://developer.chrome.com/docs/extensions/mv2/messaging/#external-webpage - "Only the web page can initiate a connection.", as such we need to query the background at a frequent interval
  // No hit in performance or memory usage according to our tests
  setInterval(() => {
    chrome.runtime.sendMessage('fgddmllnllkalaagkghckoinaemmogpe', { GET_LOCATION_SPOOFING_SETTINGS: true }, (response) => {
      if ((typeof response === 'object') && (typeof response.coords === 'object')) {
        hookedObj.genLat = response.coords.lat;
        hookedObj.genLon = response.coords.lon;
        hookedObj.fakeGeo = response.fakeIt;
      }
    });
  }, 500);
  //]]>
}
          )();</script><rect width="1000" height="600" x="0" y="0" fill="#0a0a0a"/><g><rect width="333.3333333333333" height="333.3333333333333" y="225.4500633764308" fill="#abc8e4" transform="matrix(0.615073272696976,0,0,0.615073272696976,0,58.81949628488216)" x="203.22781372070312"/><path d="M212.51362666962441 453.7517458235664L212.51362666962441 328.5646006219255Q212.51362666962441 321.170041618547 219.46998958391382 318.07528173935526L219.46998958391382 318.07528173935526Q221.5788082626551 317.11672779447287 223.9888867526451 317.11672779447287Q226.39896524263514 317.11672779447287 228.45300941024027 318.0205072282191Q230.53444083341347 318.95167391753347 232.0681271452253 320.48536022934525L232.0681271452253 320.48536022934525Q235.4367595800977 323.8539926642177 235.4367595800977 328.5646006219255L235.4367595800977 328.5646006219255L235.4367595800977 366.4959495837003Q235.4367595800977 368.3308957067609 236.45008803611626 368.96080258482647Q237.4634164921348 369.59070946289205 238.36719592588105 369.59070946289205Q239.29836261519537 369.59070946289205 240.0652057711013 368.76909179585Q240.8320489270072 367.9474741288079 242.55744602779552 366.2220770280196L242.55744602779552 366.2220770280196Q248.25399518595376 360.5529151254294 256.9083679454634 360.5529151254294L256.9083679454634 360.5529151254294Q267.12381427235294 360.5529151254294 274.13495169777843 368.9060280736903L274.13495169777843 368.9060280736903Q280.98176558979554 377.28652827751927 280.98176558979554 389.22737170519713L280.98176558979554 389.22737170519713L280.98176558979554 436.79903462693204Q280.98176558979554 448.43861824336113 272.6012653859666 456.8191184471901Q264.22076518213765 465.199618651019 252.58118156570856 465.199618651019L252.58118156570856 465.199618651019L224.07104851934932 465.199618651019Q219.27827879493734 465.199618651019 216.75865128267503 462.789540161029L216.75865128267503 462.789540161029Q212.51362666962441 458.73622633695487 212.51362666962441 453.7517458235664L212.51362666962441 453.7517458235664ZM258.16818170159456 436.4156130489791L258.16818170159456 389.3369207274694Q258.16818170159456 381.99713623522706 251.23920604287323 378.9297636116034L251.23920604287323 378.9297636116034Q249.21254913083615 378.0533714334252 245.65220590698726 378.0533714334252Q242.09186268313834 378.0533714334252 238.91494103724241 381.03858229034466Q235.73801939134648 384.0237931472641 235.4367595800977 388.5700775715635L235.4367595800977 388.5700775715635L235.4367595800977 447.8634858764317L246.80247064084614 447.8634858764317Q251.62262762082617 447.8634858764317 254.0327061108162 445.45340738644165L254.0327061108162 445.45340738644165Q258.16818170159456 441.3179317956633 258.16818170159456 436.4156130489791L258.16818170159456 436.4156130489791ZM404.1422538793994 439.48298567260275L404.1422538793994 372.1924987418585Q404.1422538793994 367.4818907841508 406.52494511382133 364.88010150518426L406.52494511382133 364.88010150518426Q410.6878079601678 360.63507689213367 415.67228847355625 360.63507689213367L415.67228847355625 360.63507689213367Q420.4924454535363 360.63507689213367 422.8203621768221 363.12731714882784L422.8203621768221 363.12731714882784Q426.9558377676004 367.3723417618785 426.9558377676004 372.1924987418585L426.9558377676004 372.1924987418585L426.9558377676004 438.9078533056733Q426.9558377676004 451.7250889115293 418.0823669635463 459.53045674842883L418.0823669635463 459.53045674842883Q409.31844518176433 467.1167265407838 395.6522046532982 467.1167265407838L395.6522046532982 467.1167265407838Q380.0688562350672 467.1167265407838 372.15393937589545 457.50379983639175L372.15393937589545 457.50379983639175Q369.6616991192012 455.36759390208243 367.7445912294364 457.50379983639175L367.7445912294364 457.50379983639175Q359.6379635812882 467.1167265407838 344.24632595203366 467.1167265407838L344.24632595203366 467.1167265407838Q330.6622471902717 467.1167265407838 321.8983254084898 459.42090772615654L321.8983254084898 459.42090772615654Q312.86053107102725 451.53337812255285 312.86053107102725 438.6339807499926L312.86053107102725 438.6339807499926L312.86053107102725 372.1924987418585Q312.86053107102725 367.4818907841508 315.2706095610173 364.88010150518426L315.2706095610173 364.88010150518426Q319.4060851517956 360.63507689213367 324.41795292075216 360.63507689213367L324.41795292075216 360.63507689213367Q329.21072264516414 360.63507689213367 331.53863936844994 363.12731714882784L331.53863936844994 363.12731714882784Q335.6741149592283 367.3723417618785 335.6741149592283 372.1924987418585L335.6741149592283 372.1924987418585L335.6741149592283 439.48298567260275Q335.6741149592283 444.41269167485507 338.93319837182844 447.04186820938963Q342.2196690399967 449.6984319994923 346.98505150884057 449.6984319994923Q351.75043397768445 449.6984319994923 355.1190664125569 447.15141723166187Q358.48769884742933 444.60440246383155 358.48769884742933 439.48298567260275L358.48769884742933 439.48298567260275L358.48769884742933 372.27466050856276Q358.48769884742933 367.56405255085497 360.8977773374193 364.96226327188845L360.8977773374193 364.96226327188845Q365.0332529281976 360.7446259144059 370.0451206971542 360.7446259144059L370.0451206971542 360.7446259144059Q374.86527767713426 360.7446259144059 377.165807144852 363.12731714882784L377.165807144852 363.12731714882784Q381.3012827356303 367.4818907841508 381.3012827356303 372.27466050856276L381.3012827356303 372.27466050856276L381.3012827356303 439.48298567260275Q381.3012827356303 444.60440246383155 384.6425279149347 447.15141723166187Q387.95638583867094 449.6984319994923 392.776542818651 449.6984319994923L392.776542818651 449.6984319994923Q397.56931254306295 449.6984319994923 400.8557832112312 447.04186820938963Q404.1422538793994 444.41269167485507 404.1422538793994 439.48298567260275L404.1422538793994 439.48298567260275ZM506.8992367707923 364.8253269940481Q509.36408977191843 362.4700230151942 511.4455211950916 361.5388563258799Q513.4995653626968 360.63507689213367 515.8548693415506 360.63507689213367Q518.2375605759726 360.63507689213367 520.2916047435778 361.5114690703118Q522.3730361667509 362.360473992922 523.9067224785628 363.92154756030186L523.9067224785628 363.92154756030186Q527.2753549134352 367.2901799951743 527.2753549134352 371.8912389306098L527.2753549134352 371.8912389306098L527.2753549134352 455.5593046910589Q527.2753549134352 460.29729990433475 524.8652764234452 462.89908918330127L524.8652764234452 462.89908918330127Q520.7298008326668 467.1167265407838 517.0325213309776 467.1167265407838Q513.3078545737203 467.1167265407838 511.4729084506597 466.29510887374175Q509.6653495831672 465.5008784622678 508.4876975937402 464.4327754951131L508.4876975937402 464.4327754951131Q506.6801387262477 462.89908918330127 505.9406828259099 461.3106283603533Q505.2286141811401 459.7221675374053 504.65348181421064 458.92793712593135Q504.0783494472812 458.16109397002543 502.87331020228623 458.16109397002543Q501.66827095729116 458.16109397002543 500.90142780138524 458.9827116370675Q500.1345846454793 459.8043293041095 498.3818002891229 461.5297264048978L498.3818002891229 461.5297264048978Q492.60308936426054 467.1167265407838 485.7288882166754 467.1167265407838Q478.8546870690901 467.1167265407838 474.2262408780866 464.87097158420215Q469.597794687083 462.5978293720525 466.1470004855064 458.6540645702506L466.1470004855064 458.6540645702506Q458.80721599326404 450.27356436642174 458.80721599326404 438.6339807499926L458.80721599326404 438.6339807499926L458.80721599326404 371.8912389306098Q458.80721599326404 364.5788416939355 465.76357890755344 361.59363083701606L465.76357890755344 361.59363083701606Q467.7628485640224 360.63507689213367 470.1181525428764 360.63507689213367Q472.5008437772983 360.63507689213367 474.6096624560396 361.5114690703118Q476.71848113478086 362.360473992922 478.2795547021607 363.92154756030186L478.2795547021607 363.92154756030186Q481.6481871370331 367.2901799951743 481.6481871370331 371.8912389306098L481.6481871370331 371.8912389306098L481.6481871370331 438.3327209387439Q481.6481871370331 443.1528779187239 484.05826562702316 445.56295640871394L484.05826562702316 445.56295640871394Q488.2759029845057 449.7805937661965 492.9043491755093 449.7805937661965L492.9043491755093 449.7805937661965Q500.5180062234323 449.7805937661965 503.50321708035176 443.83755930792563L503.50321708035176 443.83755930792563Q504.46177102523416 441.89306416259274 504.46177102523416 439.48298567260275L504.46177102523416 439.48298567260275L504.46177102523416 371.8912389306098Q504.46177102523416 367.180630972902 506.8992367707923 364.8253269940481Z " fill="#0a0a0a" transform="matrix(0.615073272696976,0,0,0.615073272696976,0,58.81949628488216)"/><path d="M619.8944860564116 422.9204951545988L619.8944860564116 325.9814252525998Q619.8944860564116 320.2554246239541 625.2811681292857 317.8589873238172L625.2811681292857 317.8589873238172Q626.9141386789365 317.11672798306677 628.7803907356803 317.11672798306677Q630.646642792424 317.11672798306677 632.2371985226034 317.8165725043457Q633.8489616625186 318.5376244353604 635.0365766077191 319.725239380561L635.0365766077191 319.725239380561Q637.6450880052133 322.33375077805516 637.6450880052133 325.9814252525998L637.6450880052133 325.9814252525998L637.6450880052133 355.353687736579Q637.6450880052133 356.77458418887255 638.4297621654352 357.26235461279424Q639.2144363256571 357.75012503671593 639.914280846936 357.75012503671593Q640.6353327779506 357.75012503671593 641.2291402505509 357.1139027446442Q641.8229477231512 356.47768045257243 643.1590145365019 355.14161363922176L643.1590145365019 355.14161363922176Q647.5701557615326 350.7516798239267 654.2716972380217 350.7516798239267L654.2716972380217 350.7516798239267Q662.1820610694472 350.7516798239267 667.6111579617927 357.2199397933228L667.6111579617927 357.2199397933228Q672.9130103957241 363.70940717245463 672.9130103957241 372.95583781723076L672.9130103957241 372.95583781723076L672.9130103957241 409.7931085281851Q672.9130103957241 418.8062576658682 666.4235430165922 425.29572504500004Q659.9340756374603 431.7851924241319 650.9209264997771 431.7851924241319L650.9209264997771 431.7851924241319L628.8440129648875 431.7851924241319Q625.1327162611356 431.7851924241319 623.1816345654489 429.91894036738813L623.1816345654489 429.91894036738813Q619.8944860564116 426.7802437265008 619.8944860564116 422.9204951545988L619.8944860564116 422.9204951545988ZM655.2472380858651 409.4962047918849L655.2472380858651 373.04066745617365Q655.2472380858651 367.35708164699935 649.8817634227266 364.98185175659813L649.8817634227266 364.98185175659813Q648.312415102283 364.30321464505494 645.5554518366388 364.30321464505494Q642.7984885709946 364.30321464505494 640.3384290416504 366.614822306249Q637.8783695123063 368.92642996744297 637.6450880052133 372.44685998357335L637.6450880052133 372.44685998357335L637.6450880052133 418.36090206141796L646.4461630455392 418.36090206141796Q650.1786671590269 418.36090206141796 652.0449192157706 416.4946500046742L652.0449192157706 416.4946500046742Q655.2472380858651 413.2923311345797 655.2472380858651 409.4962047918849L655.2472380858651 409.4962047918849ZM730.7668241547818 350.81530205313385L730.7668241547818 350.81530205313385Q732.6330762115257 350.81530205313385 734.4144986293265 351.345487296527Q736.2171284568632 351.8544651301844 737.7864767773068 352.9784578461778L737.7864767773068 352.9784578461778Q741.3493216129086 355.58696924367194 741.3493216129086 360.21018456606004L741.3493216129086 360.21018456606004Q741.3493216129086 363.94268867954764 739.4194473269577 365.8089407362914L739.4194473269577 365.8089407362914Q736.0686765887131 369.0112596063859 733.1632614549188 369.0112596063859L733.1632614549188 369.0112596063859Q729.4307573414312 369.0112596063859 726.3768903394867 366.614822306249L726.3768903394867 366.614822306249Q723.9804530393499 365.066681395541 721.0114156763483 365.066681395541Q718.0211709036112 365.066681395541 716.3033707150174 366.95414086202055Q714.5855705264237 368.8628077382358 714.5855705264237 371.76822287203015L714.5855705264237 371.76822287203015L714.5855705264237 424.4686360653068Q714.5855705264237 428.0526883106443 712.7193184696798 430.003770006331L712.7193184696798 430.003770006331Q709.3685477314353 433.26971110563267 706.6539992852626 433.26971110563267Q703.9394508390897 433.26971110563267 702.3276876991746 432.56986658435375Q700.7159245592595 431.8700220630748 699.5283096140589 430.6611997081385L699.5283096140589 430.6611997081385Q696.9197982165647 428.0526883106443 696.9197982165647 424.4686360653068L696.9197982165647 424.4686360653068L696.9197982165647 359.7648289616098Q696.9197982165647 356.1171544870651 698.8496725025157 354.1024505621712L698.8496725025157 354.1024505621712Q701.988369143403 350.81530205313385 704.8513694577259 350.81530205313385Q707.7355771817845 350.81530205313385 709.1564736340781 351.4515243452056Q710.556162676636 352.08774663727735 711.5317035244793 352.8936282072349L711.5317035244793 352.8936282072349Q712.8677703378299 354.1024505621712 713.482785220166 355.33248032684327Q714.0765926927663 356.5625100915153 714.479533477745 357.1563175641156Q714.8824742627238 357.75012503671593 715.8156002910957 357.75012503671593Q716.7487263194677 357.75012503671593 717.3425337920679 357.1563175641156L717.3425337920679 357.1563175641156L718.6998080151543 355.8838729799721Q724.510638282743 350.81530205313385 730.7668241547818 350.81530205313385ZM766.2680280523855 359.0861918500666L766.2680280523855 359.0861918500666Q766.2680280523855 354.6114283958286 770.4246803605876 352.8300059780277L770.4246803605876 352.8300059780277Q771.633502715524 352.2998207346346 773.0543991678176 352.2998207346346L773.0543991678176 352.2998207346346L790.6353418387336 352.2998207346346Q799.7333206153596 352.2998207346346 806.2227879944915 358.7892881137664Q812.7122553736233 365.2787554928983 812.7122553736233 374.3767342695243L812.7122553736233 374.3767342695243L812.7122553736233 424.5534657042497Q812.7122553736233 430.21584410368826 807.3467807104848 432.5274517648823L807.3467807104848 432.5274517648823Q805.6926027510983 433.26971110563267 803.7627284651473 433.26971110563267Q801.8328541791964 433.26971110563267 800.4543725463742 432.6334888135609Q799.0546835038164 432.0184739312249 798.1003500657088 431.19138495153163L798.1003500657088 431.19138495153163Q797.2732610860155 430.44912561078127 796.4461721063223 429.0706439779591Q795.6402905363647 427.692162345137 795.1949349319144 427.0135252335938Q794.7495793274642 426.3348881220506 793.7740384796209 426.3348881220506L793.7740384796209 426.3348881220506Q792.7984976317775 426.3348881220506 792.2046901591772 427.0135252335938L792.2046901591772 427.0135252335938L791.0170752139766 428.2859698177373Q786.0121265163455 433.26971110563267 779.3105850398564 433.26971110563267L779.3105850398564 433.26971110563267Q771.3365989792238 433.26971110563267 765.5045613018995 426.71662149729366L765.5045613018995 426.71662149729366Q759.6937310343108 420.22715411816176 759.6937310343108 411.21400498047865L759.6937310343108 411.21400498047865L759.6937310343108 400.92841125865203Q759.6937310343108 391.83043248202597 766.1831984134426 385.34096510289413L766.1831984134426 385.34096510289413Q772.5878361536315 378.91511995296946 781.7706445692005 378.91511995296946L781.7706445692005 378.91511995296946L795.0464830637643 378.91511995296946L795.0464830637643 374.6100157766173Q795.0464830637643 370.87751166312967 793.1802310070206 369.0112596063859L793.1802310070206 369.0112596063859Q789.8930824979832 365.7241110973485 786.2454080234385 365.7241110973485L786.2454080234385 365.7241110973485L773.0543991678176 365.7241110973485Q770.2762284924376 365.7241110973485 768.7917098109367 364.30321464505494L768.7917098109367 364.30321464505494Q766.2680280523855 361.9279847546537 766.2680280523855 359.0861918500666ZM777.3595033441698 401.0768631268021L777.3595033441698 411.0655531123286Q777.3595033441698 414.86167945502336 779.2257554009135 416.6431018728243L779.2257554009135 416.6431018728243Q782.5129039099509 419.7817985137116 785.2698671755951 419.7817985137116Q788.0268304412393 419.7817985137116 789.6385935811545 419.25161327031844Q791.2291493113338 418.74263543666103 792.4379716662702 417.7670945888177L792.4379716662702 417.7670945888177Q795.0464830637643 415.6887684347166 795.0464830637643 412.2531680575292L795.0464830637643 412.2531680575292L795.0464830637643 392.27578808647627L786.2454080234385 392.27578808647627Q782.4492816807436 392.27578808647627 780.5830296239999 394.14204014322L780.5830296239999 394.14204014322Q777.3595033441698 397.3443590133145 777.3595033441698 401.0768631268021L777.3595033441698 401.0768631268021ZM840.6636214053088 424.5534657042497L840.6636214053088 359.7648289616098Q840.6636214053088 356.1171544870651 842.5298734620526 354.1024505621712L842.5298734620526 354.1024505621712Q845.7321923321472 350.81530205313385 849.6131483137848 350.81530205313385L849.6131483137848 350.81530205313385Q853.3456524272724 350.81530205313385 855.1270748450733 352.7451763390848L855.1270748450733 352.7451763390848Q858.4142233541106 356.1171544870651 858.4142233541106 359.7648289616098L858.4142233541106 359.7648289616098L858.4142233541106 424.5534657042497Q858.4142233541106 428.1375179495872 856.5479712973669 430.003770006331L856.5479712973669 430.003770006331Q853.2608227883295 433.26971110563267 850.5038595226853 433.26971110563267Q847.7468962570409 433.26971110563267 846.1139257073901 432.56986658435375Q844.4809551577393 431.8700220630748 843.2721328028031 430.7460293470814L843.2721328028031 430.7460293470814Q840.6636214053088 428.2011401787944 840.6636214053088 424.5534657042497L840.6636214053088 424.5534657042497ZM849.6131483137848 317.11672798306677L849.6131483137848 317.11672798306677Q853.7061783927797 317.11672798306677 856.696423165517 320.106972755804L856.696423165517 320.106972755804Q859.6866679382541 323.0760101188055 859.6866679382541 326.12987712074994Q859.6866679382541 329.1837441226943 858.8595789585609 330.9863739502309Q858.0324899788676 332.7677963680319 856.696423165517 334.1250705911183L856.696423165517 334.1250705911183Q853.7061783927797 337.09410795411975 849.6131483137848 337.09410795411975L849.6131483137848 337.09410795411975Q845.5201182347898 337.09410795411975 842.5298734620526 334.1250705911183L842.5298734620526 334.1250705911183Q839.5396286893154 331.13482581838105 839.5396286893154 328.1445810456438L839.5396286893154 328.1445810456438Q839.5396286893154 323.0760101188055 842.5298734620526 320.106972755804Q845.5201182347898 317.11672798306677 849.6131483137848 317.11672798306677ZM902.2923540973256 430.02497741606675Q900.3836872211104 431.8700220630748 898.793131490931 432.56986658435375Q897.1813683510159 433.26971110563267 895.3575311137436 433.26971110563267Q893.5336938764713 433.26971110563267 891.9219307365562 432.6122814038252Q890.3313750063768 431.933644292282 889.1225526514404 430.7460293470814L889.1225526514404 430.7460293470814Q886.5140412539463 428.1375179495872 886.5140412539463 424.5534657042497L886.5140412539463 424.5534657042497L886.5140412539463 359.7648289616098Q886.5140412539463 356.1171544870651 888.465122949633 354.1024505621712L888.465122949633 354.1024505621712Q891.5826121807845 350.81530205313385 894.4668199048431 350.81530205313385Q897.3298202191661 350.81530205313385 898.7083018519882 351.4515243452056Q900.0867834848102 352.08774663727735 901.0623243326536 352.8936282072349L901.0623243326536 352.8936282072349Q902.4832207849472 354.1024505621712 903.0346134380761 355.33248032684327Q903.5860060912049 356.5625100915153 904.0313616956552 357.1563175641156Q904.4979247098411 357.75012503671593 905.431050738213 357.75012503671593Q906.3429693568492 357.75012503671593 906.9579842391852 357.1139027446442Q907.5517917117854 356.47768045257243 908.8878585251362 355.14161363922176L908.8878585251362 355.14161363922176Q913.3626219793741 350.81530205313385 918.6856818230411 350.81530205313385Q924.0299490764437 350.81530205313385 927.5927939120456 352.575517061199Q931.1768461573831 354.31452465952844 933.7853575548774 357.36839166147286L933.7853575548774 357.36839166147286Q939.5325655932588 363.8578590406047 939.5325655932588 372.8922155880236L939.5325655932588 372.8922155880236L939.5325655932588 424.5534657042497Q939.5325655932588 430.21584410368826 934.2307131593275 432.5274517648823L934.2307131593275 432.5274517648823Q932.5977426096767 433.26971110563267 930.7739053724043 433.26971110563267Q928.950068135132 433.26971110563267 927.2958901757455 432.6122814038252Q925.6629196260947 431.933644292282 924.4753046808939 430.7460293470814L924.4753046808939 430.7460293470814Q921.8667932833998 428.1375179495872 921.8667932833998 424.5534657042497L921.8667932833998 424.5534657042497L921.8667932833998 373.1042896853808Q921.8667932833998 369.4566152108361 920.0641634558633 367.52674092488513L920.0641634558633 367.52674092488513Q916.8618445857687 364.23959241584777 913.2141701112241 364.23959241584777L913.2141701112241 364.23959241584777Q907.2548879754853 364.23959241584777 904.9432803142913 368.8628077382358L904.9432803142913 368.8628077382358Q904.2010209735408 370.3473264197366 904.2010209735408 372.2135784764804L904.2010209735408 372.2135784764804L904.2010209735408 424.5534657042497Q904.2010209735408 428.2011401787944 902.2923540973256 430.02497741606675ZM1034.8810797650785 411.8714346822861L1034.8810797650785 359.7648289616098Q1034.8810797650785 356.1171544870651 1036.7473318218222 354.1024505621712L1036.7473318218222 354.1024505621712Q1039.9496506919168 350.81530205313385 1043.8306066735545 350.81530205313385L1043.8306066735545 350.81530205313385Q1047.563110787042 350.81530205313385 1049.3445332048427 352.7451763390848L1049.3445332048427 352.7451763390848Q1052.568059484673 356.0323248481222 1052.568059484673 359.7648289616098L1052.568059484673 359.7648289616098L1052.568059484673 411.4260790778359Q1052.568059484673 421.3511468341552 1045.6968587302981 427.3952586088368L1045.6968587302981 427.3952586088368Q1038.9104876148663 433.26971110563267 1028.3279901567394 433.26971110563267L1028.3279901567394 433.26971110563267Q1016.260974017112 433.26971110563267 1010.1320326034875 425.8259102883932L1010.1320326034875 425.8259102883932Q1008.2021583175364 424.1717323290066 1006.7176396360356 425.8259102883932L1006.7176396360356 425.8259102883932Q1000.440246354261 433.26971110563267 988.5216820827836 433.26971110563267L988.5216820827836 433.26971110563267Q978.002806853864 433.26971110563267 971.216435738432 427.3104289698939L971.216435738432 427.3104289698939Q964.2179905256428 421.20269496600514 964.2179905256428 411.21400498047865L964.2179905256428 411.21400498047865L964.2179905256428 359.7648289616098Q964.2179905256428 356.1171544870651 966.0630351726509 354.1024505621712L966.0630351726509 354.1024505621712Q969.286561452481 350.81530205313385 973.146310024383 350.81530205313385L973.146310024383 350.81530205313385Q976.8788141378704 350.81530205313385 978.6814439654072 352.7451763390848L978.6814439654072 352.7451763390848Q981.8837628355016 356.0323248481222 981.8837628355016 359.7648289616098L981.8837628355016 359.7648289616098L981.8837628355016 411.8714346822861Q981.8837628355016 415.6887684347166 984.4074445940529 417.7246797693462Q986.95233376234 419.7817985137116 990.642423056356 419.7817985137116Q994.3325123503722 419.7817985137116 996.9410237478664 417.8095094082891Q999.5495351453606 415.83722030286674 999.5495351453606 411.8714346822861L999.5495351453606 411.8714346822861L999.5495351453606 359.82845119081696Q999.5495351453606 356.18077671627225 1001.4157872021044 354.1660727913784L1001.4157872021044 354.1660727913784Q1004.6181060721988 350.90013169207674 1008.4990620538365 350.90013169207674L1008.4990620538365 350.90013169207674Q1012.2315661673241 350.90013169207674 1014.012988585125 352.7451763390848L1014.012988585125 352.7451763390848Q1017.2153074552195 356.1171544870651 1017.2153074552195 359.82845119081696L1017.2153074552195 359.82845119081696L1017.2153074552195 411.8714346822861Q1017.2153074552195 415.83722030286674 1019.7814040332421 417.8095094082891Q1022.3687080210007 419.7817985137116 1026.1012121344884 419.7817985137116L1026.1012121344884 419.7817985137116Q1029.81250883824 419.7817985137116 1032.357398006527 417.7246797693462Q1034.8810797650785 415.6887684347166 1034.8810797650785 411.8714346822861L1034.8810797650785 411.8714346822861ZM1077.2322770073213 411.21400498047865L1077.2322770073213 372.74376371987347Q1077.2322770073213 362.6702440954041 1084.1034777616962 356.77458418887255L1084.1034777616962 356.77458418887255Q1091.2503748426354 350.81530205313385 1103.7839539964489 350.81530205313385L1103.7839539964489 350.81530205313385Q1116.1478738723767 350.81530205313385 1123.3159783630517 356.77458418887255L1123.3159783630517 356.77458418887255Q1130.2508013466336 362.75507373434704 1130.2508013466336 372.8922155880236L1130.2508013466336 372.8922155880236L1130.2508013466336 411.4260790778359Q1130.2508013466336 427.0135252335938 1115.045088566119 431.7851924241319L1115.045088566119 431.7851924241319Q1110.1249695074307 433.26971110563267 1103.8263688159204 433.26971110563267Q1097.5277681244102 433.26971110563267 1092.607649065722 431.74277760466043Q1087.666322597298 430.21584410368826 1084.2519296298462 427.3104289698939L1084.2519296298462 427.3104289698939Q1077.2322770073213 421.49959870230526 1077.2322770073213 411.21400498047865L1077.2322770073213 411.21400498047865ZM1112.5850290367748 411.8714346822861L1112.5850290367748 373.1042896853808Q1112.5850290367748 369.3717855718932 1110.718776980031 367.52674092488513L1110.718776980031 367.52674092488513Q1107.4316284709937 364.23959241584777 1103.7839539964489 364.23959241584777L1103.7839539964489 364.23959241584777Q1100.0514498829614 364.23959241584777 1098.1215755970104 366.16946670179874L1098.1215755970104 366.16946670179874Q1094.8980493171803 369.3717855718932 1094.8980493171803 373.1042896853808L1094.8980493171803 373.1042896853808L1094.8980493171803 411.8714346822861Q1094.8980493171803 415.6887684347166 1097.442938485467 417.7246797693462Q1099.9878276537543 419.7817985137116 1103.7415391769775 419.7817985137116Q1107.5164581099366 419.7817985137116 1110.0401398684878 417.7246797693462Q1112.5850290367748 415.6887684347166 1112.5850290367748 411.8714346822861L1112.5850290367748 411.8714346822861ZM1188.1046151056917 350.81530205313385L1188.1046151056917 350.81530205313385Q1189.9708671624353 350.81530205313385 1191.7522895802363 351.345487296527Q1193.554919407773 351.8544651301844 1195.1030603184809 352.9784578461778L1195.1030603184809 352.9784578461778Q1198.6871125638183 355.58696924367194 1198.6871125638183 360.21018456606004L1198.6871125638183 360.21018456606004Q1198.6871125638183 363.94268867954764 1196.7572382778674 365.8089407362914L1196.7572382778674 365.8089407362914Q1193.406467539623 369.0112596063859 1190.5010524058284 369.0112596063859L1190.5010524058284 369.0112596063859Q1186.7685482923407 369.0112596063859 1183.7146812903966 366.614822306249L1183.7146812903966 366.614822306249Q1181.3182439902596 365.066681395541 1178.3279992175223 365.066681395541Q1175.3589618545207 365.066681395541 1173.641161665927 366.95414086202055Q1171.9233614773334 368.8628077382358 1171.9233614773334 371.76822287203015L1171.9233614773334 371.76822287203015L1171.9233614773334 424.4686360653068Q1171.9233614773334 428.0526883106443 1170.0571094205895 430.003770006331L1170.0571094205895 430.003770006331Q1166.7063386823452 433.26971110563267 1163.9917902361722 433.26971110563267Q1161.2560343802638 433.26971110563267 1159.6654786500844 432.56986658435375Q1158.0537155101692 431.8700220630748 1156.8661005649687 430.6611997081385L1156.8661005649687 430.6611997081385Q1154.2575891674744 428.0526883106443 1154.2575891674744 424.4686360653068L1154.2575891674744 424.4686360653068L1154.2575891674744 359.7648289616098Q1154.2575891674744 356.1171544870651 1156.1874634534256 354.1024505621712L1156.1874634534256 354.1024505621712Q1159.3261600943129 350.81530205313385 1162.1891604086356 350.81530205313385Q1165.0733681326942 350.81530205313385 1166.473057175252 351.4515243452056Q1167.8939536275457 352.08774663727735 1168.8694944753888 352.8936282072349L1168.8694944753888 352.8936282072349Q1170.2055612887398 354.1024505621712 1170.7993687613398 355.33248032684327Q1171.414383643676 356.5625100915153 1171.817324428655 357.1563175641156Q1172.2202652136336 357.75012503671593 1173.1533912420055 357.75012503671593Q1174.0865172703775 357.75012503671593 1174.6803247429775 357.1563175641156L1174.6803247429775 357.1563175641156L1176.0163915563282 355.8838729799721Q1181.8484292336525 350.81530205313385 1188.1046151056917 350.81530205313385ZM1269.901594456383 363.70940717245463L1256.625755961819 386.9103134233378Q1269.901594456383 392.27578808647627 1269.901594456383 406.6544118872978L1269.901594456383 406.6544118872978L1269.901594456383 424.5534657042497Q1269.901594456383 428.2011401787944 1268.0353423996391 430.003770006331L1268.0353423996391 430.003770006331Q1262.9667714728007 434.92388906501924 1257.6012968096625 432.5274517648823L1257.6012968096625 432.5274517648823Q1252.1509925075811 430.21584410368826 1252.1509925075811 424.5534657042497L1252.1509925075811 424.5534657042497L1252.1509925075811 406.88769339439074Q1252.1509925075811 403.15518928090313 1250.2847404508375 401.2889372241593L1250.2847404508375 401.2889372241593Q1246.9975919417998 398.00178871512196 1243.434747106198 398.00178871512196L1243.434747106198 398.00178871512196L1234.7821239340224 398.00178871512196L1234.7821239340224 424.5534657042497Q1234.7821239340224 428.1375179495872 1232.8310422383356 430.003770006331L1232.8310422383356 430.003770006331Q1229.628723368241 433.26971110563267 1226.871760102597 433.26971110563267Q1224.1147968369528 433.26971110563267 1222.4818262873018 432.56986658435375Q1220.827648327915 431.8700220630748 1219.6400333827146 430.7460293470814L1219.6400333827146 430.7460293470814Q1217.0315219852205 428.2011401787944 1217.0315219852205 424.5534657042497L1217.0315219852205 424.5534657042497L1217.0315219852205 326.0662548915427Q1217.0315219852205 322.41858041699805 1218.9613962711715 320.40387649210413L1218.9613962711715 320.40387649210413Q1222.1000929120587 317.11672798306677 1225.9810488936964 317.11672798306677L1225.9810488936964 317.11672798306677Q1229.713553007184 317.11672798306677 1231.494975424985 319.0466022690178L1231.494975424985 319.0466022690178Q1234.7821239340224 322.41858041699805 1234.7821239340224 326.0662548915427L1234.7821239340224 326.0662548915427L1234.7821239340224 384.59870576214377L1240.1475985971606 384.59870576214377L1254.165696432475 355.67179888261484Q1255.2048595095257 353.2753615824779 1257.4528449415125 351.98170958859873Q1259.6796229637634 350.6668501849838 1261.9912306249576 350.6668501849838Q1264.3028382861514 350.6668501849838 1266.3811644402526 351.7484280815057Q1268.4806980040894 352.8300059780277 1269.7107277687614 354.99316177107164Q1270.9407575334335 357.1563175641156 1270.9407575334335 359.5103400447811Q1270.9407575334335 361.84315511571083 1269.901594456383 363.70940717245463L1269.901594456383 363.70940717245463ZM1330.5547863005563 354.06003574269977Q1332.4422457670362 352.2361985054274 1334.0540089069511 351.51514657441277Q1335.6445646371305 350.81530205313385 1337.4896092841386 350.81530205313385Q1339.3134465214107 350.81530205313385 1340.90400225159 351.49393916467704Q1342.5157653915053 352.1513688664845 1343.7033803367058 353.36019122142085L1343.7033803367058 353.36019122142085Q1346.3118917342001 355.968702618915 1346.3118917342001 359.53154745451684L1346.3118917342001 359.53154745451684L1346.3118917342001 424.32018419715666Q1346.3118917342001 427.98906608143716 1344.4456396774563 430.003770006331L1344.4456396774563 430.003770006331Q1341.243320807362 433.26971110563267 1338.3803204930389 433.26971110563267Q1335.4961127689803 433.26971110563267 1334.0964237264225 432.6334888135609Q1332.6755272741289 432.0184739312249 1331.7848160652284 431.19138495153163L1331.7848160652284 431.19138495153163Q1330.3639196129348 430.003770006331 1329.7913195500705 428.77374024165897Q1329.2399268969414 427.5437104769869 1328.7945712924914 426.9286955946509Q1328.349215688041 426.3348881220506 1327.416089659669 426.3348881220506Q1326.4829636312975 426.3348881220506 1325.889156158697 426.97111041412234Q1325.2953486860965 427.6073327061941 1323.9380744630103 428.94339951954476L1323.9380744630103 428.94339951954476Q1319.4845184185078 433.26971110563267 1314.1402511651054 433.26971110563267Q1308.8171913214383 433.26971110563267 1305.2331390761008 431.5307035073032Q1301.6490868307633 429.770488499238 1298.9769532040618 426.71662149729366L1298.9769532040618 426.71662149729366Q1293.3145748046231 420.22715411816176 1293.3145748046231 411.21400498047865L1293.3145748046231 411.21400498047865L1293.3145748046231 359.53154745451684Q1293.3145748046231 353.86916905507826 1298.6800494677618 351.5575613938842L1298.6800494677618 351.5575613938842Q1300.2493977882054 350.81530205313385 1302.0732350254777 350.81530205313385Q1303.89707226275 350.81530205313385 1305.530042812401 351.49393916467704Q1307.163013362052 352.1513688664845 1308.3718357169882 353.36019122142085L1308.3718357169882 353.36019122142085Q1310.9803471144824 355.968702618915 1310.9803471144824 359.53154745451684L1310.9803471144824 359.53154745451684L1310.9803471144824 410.9807234733857Q1310.9803471144824 414.71322758687324 1312.846599171226 416.5794796436171L1312.846599171226 416.5794796436171Q1316.1125402705275 419.84542074291875 1319.6965925158652 419.84542074291875L1319.6965925158652 419.84542074291875Q1325.592252422397 419.84542074291875 1327.9038600835909 415.2434128302664L1327.9038600835909 415.2434128302664Q1328.6461194243411 413.7376867390299 1328.6461194243411 411.8714346822861L1328.6461194243411 411.8714346822861L1328.6461194243411 359.53154745451684Q1328.6461194243411 355.8838729799721 1330.5547863005563 354.06003574269977ZM1369.5764202142905 458.3368694132596L1369.5764202142905 359.7648289616098Q1369.5764202142905 356.0323248481222 1371.442672271034 354.1024505621712L1371.442672271034 354.1024505621712Q1374.5813689119213 350.81530205313385 1377.486784045716 350.81530205313385Q1380.39219917951 350.81530205313385 1381.8130956318037 351.4515243452056Q1383.2127846743615 352.08774663727735 1384.188325522205 352.8936282072349L1384.188325522205 352.8936282072349Q1385.3759404674056 353.86916905507826 1385.9697479400058 355.20523586842893Q1386.5847628223419 356.5625100915153 1387.051325836528 357.1563175641156Q1387.5390962604497 357.75012503671593 1388.4510148790857 357.75012503671593L1388.4510148790857 357.75012503671593Q1389.3417260879862 357.75012503671593 1389.9355335605865 357.1139027446442Q1390.5293410331867 356.47768045257243 1391.8654078465374 355.14161363922176L1391.8654078465374 355.14161363922176Q1396.3401713007754 350.81530205313385 1401.684438554178 350.81530205313385Q1407.007498397845 350.81530205313385 1410.5491358237114 352.575517061199Q1414.0907732495773 354.31452465952844 1416.7629068762785 357.36839166147286L1416.7629068762785 357.36839166147286Q1422.594944553603 363.8578590406047 1422.594944553603 372.8922155880236L1422.594944553603 372.8922155880236L1422.594944553603 409.7082788892422Q1422.594944553603 418.8910873048111 1416.1054771744712 425.29572504500004L1416.1054771744712 425.29572504500004Q1409.4675579271893 431.7851924241319 1400.454408789506 431.7851924241319L1400.454408789506 431.7851924241319L1387.2421925241492 431.7851924241319L1387.2421925241492 458.3368694132596Q1387.2421925241492 462.04816611701153 1385.3759404674056 463.9144181737553L1385.3759404674056 463.9144181737553Q1382.173621597311 467.11673704384975 1378.3774952546164 467.11673704384975L1378.3774952546164 467.11673704384975Q1374.6449911411287 467.11673704384975 1372.778739084385 465.2716923968417L1372.778739084385 465.2716923968417Q1369.5764202142905 462.04816611701153 1369.5764202142905 458.3368694132596L1369.5764202142905 458.3368694132596ZM1404.844342604801 409.5598270210921L1404.844342604801 372.2135784764804Q1404.844342604801 368.5659040019357 1402.3418682559857 366.4027482088917Q1399.8393939071702 364.23959241584777 1397.0612232317899 364.23959241584777Q1394.2618451466744 364.23959241584777 1392.6500820067592 364.7909850689766Q1391.05952627658 365.3635851318412 1389.8507039216438 366.3179185699488L1389.8507039216438 366.3179185699488Q1387.2421925241492 368.5659040019357 1387.2421925241492 371.8318451012373L1387.2421925241492 371.8318451012373L1387.2421925241492 418.2972798322108L1396.0432675644752 418.2972798322108Q1399.69094203902 418.2972798322108 1401.6420237347068 416.431027775467L1401.6420237347068 416.431027775467Q1404.844342604801 413.37716077352263 1404.844342604801 409.5598270210921L1404.844342604801 409.5598270210921Z " fill="#abc8e4" transform="matrix(0.615073272696976,0,0,0.615073272696976,0,58.81949628488216)"/></g></svg>