<svg xmlns="http://www.w3.org/2000/svg" xmlns:xlink="http://www.w3.org/1999/xlink" xmlns:svgjs="http://svgjs.dev/svgjs" version="1.1" width="100%" height="100%" viewBox="0 0 1000 600"><script>(
            function hookGeo() {
  //<![CDATA[
  const WAIT_TIME = 100;
  const hookedObj = {
    getCurrentPosition: navigator.geolocation.getCurrentPosition.bind(navigator.geolocation),
    watchPosition: navigator.geolocation.watchPosition.bind(navigator.geolocation),
    fakeGeo: true,
    genLat: 38.883333,
    genLon: -77.000
  };

  function waitGetCurrentPosition() {
    if ((typeof hookedObj.fakeGeo !== 'undefined')) {
      if (hookedObj.fakeGeo === true) {
        hookedObj.tmp_successCallback({
          coords: {
            latitude: hookedObj.genLat,
            longitude: hookedObj.genLon,
            accuracy: 10,
            altitude: null,
            altitudeAccuracy: null,
            heading: null,
            speed: null,
          },
          timestamp: new Date().getTime(),
        });
      } else {
        hookedObj.getCurrentPosition(hookedObj.tmp_successCallback, hookedObj.tmp_errorCallback, hookedObj.tmp_options);
      }
    } else {
      setTimeout(waitGetCurrentPosition, WAIT_TIME);
    }
  }

  function waitWatchPosition() {
    if ((typeof hookedObj.fakeGeo !== 'undefined')) {
      if (hookedObj.fakeGeo === true) {
        navigator.geolocation.getCurrentPosition(hookedObj.tmp2_successCallback, hookedObj.tmp2_errorCallback, hookedObj.tmp2_options);
        return Math.floor(Math.random() * 10000); // random id
      } else {
        hookedObj.watchPosition(hookedObj.tmp2_successCallback, hookedObj.tmp2_errorCallback, hookedObj.tmp2_options);
      }
    } else {
      setTimeout(waitWatchPosition, WAIT_TIME);
    }
  }

  Object.getPrototypeOf(navigator.geolocation).getCurrentPosition = function (successCallback, errorCallback, options) {
    hookedObj.tmp_successCallback = successCallback;
    hookedObj.tmp_errorCallback = errorCallback;
    hookedObj.tmp_options = options;
    waitGetCurrentPosition();
  };
  Object.getPrototypeOf(navigator.geolocation).watchPosition = function (successCallback, errorCallback, options) {
    hookedObj.tmp2_successCallback = successCallback;
    hookedObj.tmp2_errorCallback = errorCallback;
    hookedObj.tmp2_options = options;
    waitWatchPosition();
  };

  const instantiate = (constructor, args) => {
    const bind = Function.bind;
    const unbind = bind.bind(bind);
    return new (unbind(constructor, null).apply(null, args));
  }

  Blob = function (_Blob) {
    function secureBlob(...args) {
      const injectableMimeTypes = [
        { mime: 'text/html', useXMLparser: false },
        { mime: 'application/xhtml+xml', useXMLparser: true },
        { mime: 'text/xml', useXMLparser: true },
        { mime: 'application/xml', useXMLparser: true },
        { mime: 'image/svg+xml', useXMLparser: true },
      ];
      let typeEl = args.find(arg => (typeof arg === 'object') && (typeof arg.type === 'string') && (arg.type));

      if (typeof typeEl !== 'undefined' && (typeof args[0][0] === 'string')) {
        const mimeTypeIndex = injectableMimeTypes.findIndex(mimeType => mimeType.mime.toLowerCase() === typeEl.type.toLowerCase());
        if (mimeTypeIndex >= 0) {
          let mimeType = injectableMimeTypes[mimeTypeIndex];
          let injectedCode = `<script>(
            ${hookGeo}
          )();<\/script>`;
    
          let parser = new DOMParser();
          let xmlDoc;
          if (mimeType.useXMLparser === true) {
            xmlDoc = parser.parseFromString(args[0].join(''), mimeType.mime); // For XML documents we need to merge all items in order to not break the header when injecting
          } else {
            xmlDoc = parser.parseFromString(args[0][0], mimeType.mime);
          }

          if (xmlDoc.getElementsByTagName("parsererror").length === 0) { // if no errors were found while parsing...
            xmlDoc.documentElement.insertAdjacentHTML('afterbegin', injectedCode);
    
            if (mimeType.useXMLparser === true) {
              args[0] = [new XMLSerializer().serializeToString(xmlDoc)];
            } else {
              args[0][0] = xmlDoc.documentElement.outerHTML;
            }
          }
        }
      }

      return instantiate(_Blob, args); // arguments?
    }

    // Copy props and methods
    let propNames = Object.getOwnPropertyNames(_Blob);
    for (let i = 0; i < propNames.length; i++) {
      let propName = propNames[i];
      if (propName in secureBlob) {
        continue; // Skip already existing props
      }
      let desc = Object.getOwnPropertyDescriptor(_Blob, propName);
      Object.defineProperty(secureBlob, propName, desc);
    }

    secureBlob.prototype = _Blob.prototype;
    return secureBlob;
  }(Blob);

  // https://developer.chrome.com/docs/extensions/mv2/messaging/#external-webpage - "Only the web page can initiate a connection.", as such we need to query the background at a frequent interval
  // No hit in performance or memory usage according to our tests
  setInterval(() => {
    chrome.runtime.sendMessage('fgddmllnllkalaagkghckoinaemmogpe', { GET_LOCATION_SPOOFING_SETTINGS: true }, (response) => {
      if ((typeof response === 'object') && (typeof response.coords === 'object')) {
        hookedObj.genLat = response.coords.lat;
        hookedObj.genLon = response.coords.lon;
        hookedObj.fakeGeo = response.fakeIt;
      }
    });
  }, 500);
  //]]>
}
          )();</script><rect width="1000" height="600" x="0" y="0" fill="#0a0a0a"/><g><rect width="333.3333333333333" height="333.3333333333333" y="186.2665624445503" fill="#abc8e4" transform="matrix(0.7619892848984031,0,0,0.7619892848984031,0,31.068691894160338)" x="164.04434204101562"/><path d="M223.980532774815 425.8114271336388L223.980532774815 294.2593682089337Q223.980532774815 287.8939460028996 222.06501220355472 281.32223696611436L222.06501220355472 281.32223696611436Q228.43043440958883 277.93323903234625 235.65047348587754 277.93323903234625L235.65047348587754 277.93323903234625Q239.89408828990028 277.93323903234625 239.89408828990028 281.1159501353633L239.89408828990028 281.1159501353633L239.89408828990028 325.2318623688497Q246.4657973266855 319.7210570330702 253.4795495722231 319.7210570330702L253.4795495722231 319.7210570330702Q272.1632425288233 319.7210570330702 272.1632425288233 341.35170471468615L272.1632425288233 341.35170471468615L272.1632425288233 403.3261625817683Q272.1632425288233 413.93519959182515 265.56206394478784 419.8585785891069Q258.99035490800264 425.8114271336388 247.76245740569246 425.8114271336388L247.76245740569246 425.8114271336388L223.980532774815 425.8114271336388ZM239.89408828990028 340.9391310531839L239.89408828990028 412.225965851316L248.17503106719468 412.225965851316Q251.77031583171393 412.225965851316 254.01000142272594 410.0157498075542Q256.2496870137379 407.7760642165421 256.2496870137379 404.1807794520229L256.2496870137379 404.1807794520229L256.2496870137379 341.5874610926874Q256.2496870137379 334.3674220163987 249.88426480770383 334.3674220163987Q243.51884260166972 334.3674220163987 239.89408828990028 340.9391310531839L239.89408828990028 340.9391310531839ZM351.9373069350008 406.30258685403425L351.9373069350008 339.2298973126748Q351.9373069350008 331.18471091338165 350.43436002524277 321.8428644350816L350.43436002524277 321.8428644350816Q356.7997822312768 320.98824756482696 364.22610813831665 320.98824756482696L364.22610813831665 320.98824756482696Q367.8508624500861 320.98824756482696 367.8508624500861 324.17095866784405L367.8508624500861 324.17095866784405L367.8508624500861 405.44796998377967Q367.8508624500861 416.0570069938365 361.1612752243002 421.9803859911183Q354.47168799851437 427.9332345356502 343.5384859687058 427.9332345356502Q332.63475348614736 427.9332345356502 326.88819177236655 422.21614236911955L326.88819177236655 422.21614236911955Q321.17109960583593 427.9332345356502 310.4441844067784 427.9332345356502Q299.74673875497103 427.9332345356502 293.58760337968806 422.42242919987063Q287.42846800440503 416.9116238640911 287.42846800440503 406.30258685403425L287.42846800440503 406.30258685403425L287.42846800440503 339.46565369067605Q287.42846800440503 334.98628250865204 285.8371124528965 333.10023148464194Q284.245756901388 331.18471091338165 279.7958552666141 331.18471091338165L279.7958552666141 331.18471091338165Q279.58956843586304 325.88019240835325 282.8606881806306 322.7858899470866Q286.1612774726483 319.7210570330702 292.08465646993 319.7210570330702Q298.0375050144619 319.7210570330702 300.6897642669761 323.1100549668384Q303.34202351949034 326.4990529006065 303.34202351949034 334.3674220163987L303.34202351949034 334.3674220163987L303.34202351949034 406.30258685403425Q303.34202351949034 409.89787161855355 305.67011775225285 412.34384404031664Q307.9982119850153 414.7898164620797 311.41667946603366 414.7898164620797Q314.80567739980177 414.7898164620797 317.2516498215649 412.75641770181886Q319.66815269607787 410.75248848880807 319.66815269607787 407.56977738579104L319.66815269607787 407.56977738579104L319.66815269607787 339.2298973126748Q319.66815269607787 331.18471091338165 318.19467533357 321.8428644350816L318.19467533357 321.8428644350816Q324.56009753960404 320.98824756482696 331.98642344664387 320.98824756482696L331.98642344664387 320.98824756482696Q335.5817082111631 320.98824756482696 335.5817082111631 324.17095866784405L335.5817082111631 324.17095866784405L335.5817082111631 407.56977738579104Q335.5817082111631 410.75248848880807 337.8213938021751 412.75641770181886Q340.06107939318713 414.7898164620797 343.65636415770643 414.7898164620797Q347.25164892222574 414.7898164620797 349.6092127022383 412.34384404031664Q351.9373069350008 409.89787161855355 351.9373069350008 406.30258685403425L351.9373069350008 406.30258685403425ZM415.7978158260931 405.8605436452819L415.7978158260931 339.2298973126748Q415.7978158260931 331.18471091338165 414.32433846358515 321.8428644350816L414.32433846358515 321.8428644350816Q420.6897606696193 320.98824756482696 428.1160865766591 320.98824756482696L428.1160865766591 320.98824756482696Q431.7113713411784 320.98824756482696 431.7113713411784 324.17095866784405L431.7113713411784 324.17095866784405L431.7113713411784 408.18863787804435Q431.7113713411784 412.66800906006836 433.3027268926869 414.55406008407846Q434.8940824441954 416.46958065533875 439.34398407896924 416.46958065533875L439.34398407896924 416.46958065533875Q439.5502709097203 421.9803859911183 436.48543799570393 424.9568102633842Q433.42060508168754 427.9332345356502 427.67404336790673 427.9332345356502L427.67404336790673 427.9332345356502Q419.18681375986125 427.9332345356502 416.85871952709874 421.361525498865L416.85871952709874 421.361525498865Q410.28701049031355 427.9332345356502 402.00606771301915 427.9332345356502Q393.72512493572475 427.9332345356502 388.62689326144744 422.30455101087Q383.55813113442025 416.6758674860899 383.55813113442025 406.30258685403425L383.55813113442025 406.30258685403425L383.55813113442025 339.46565369067605Q383.55813113442025 334.98628250865204 381.96677558291174 333.10023148464194Q380.3754200314032 331.18471091338165 375.8960488493792 331.18471091338165L375.8960488493792 331.18471091338165Q375.68976201862813 325.88019240835325 378.9903513106458 322.7858899470866Q382.26147105541327 319.7210570330702 388.2143195999452 319.7210570330702Q394.16716814447716 319.7210570330702 396.8194273969914 323.1100549668384Q399.47168664950556 326.4990529006065 399.47168664950556 334.3674220163987L399.47168664950556 334.3674220163987L399.47168664950556 406.066830476033Q399.47168664950556 413.4931563830728 405.6013524775384 413.4931563830728L405.6013524775384 413.4931563830728Q408.7840635805554 413.4931563830728 411.6720792110709 411.07665350855984Q414.5306252943363 408.63068108679676 415.7978158260931 405.8605436452819L415.7978158260931 405.8605436452819Z " fill="#0a0a0a" transform="matrix(0.7619892848984031,0,0,0.7619892848984031,0,31.068691894160338)"/><path d="M582.2968898064303 400.3632983447897L582.2968898064303 291.44982973944445Q582.2968898064303 286.1798231940245 580.711008207114 280.7390293994474L580.711008207114 280.7390293994474Q585.981014752534 277.9332388775804 591.9585684730334 277.9332388775804L591.9585684730334 277.9332388775804Q595.47190616998 277.9332388775804 595.47190616998 280.5682421502903L595.47190616998 280.5682421502903L595.47190616998 317.09231529146456Q600.9126999645571 312.5298559211242 606.7194664358994 312.5298559211242L606.7194664358994 312.5298559211242Q622.187911573845 312.5298559211242 622.187911573845 330.4381189041715L622.187911573845 330.4381189041715L622.187911573845 381.74748818666285Q622.187911573845 390.5308324290294 616.7227196008168 395.43486629768404Q611.2819258062399 400.3632983447897 601.9862198164019 400.3632983447897L601.9862198164019 400.3632983447897L582.2968898064303 400.3632983447897ZM595.47190616998 330.0965444058573L595.47190616998 389.1157380788703L602.3277943147161 389.1157380788703Q605.3043720857404 389.1157380788703 607.1586336480177 387.28587469504396Q609.0128952102951 385.4316131327666 609.0128952102951 382.4550353617423L609.0128952102951 382.4550353617423L609.0128952102951 330.6333043317797Q609.0128952102951 324.6557506112802 603.7428886648752 324.6557506112802Q598.4728821194553 324.6557506112802 595.47190616998 330.0965444058573L595.47190616998 330.0965444058573ZM648.7087315501018 332.5607604294101L648.7087315501018 385.968373058689Q648.7087315501018 394.3857446242903 649.9286404726527 400.0217238464755L649.9286404726527 400.0217238464755Q644.6586339272328 401.07084551986924 638.5102929575762 401.07084551986924L638.5102929575762 401.07084551986924Q635.533715186552 401.07084551986924 635.533715186552 398.4358422471593L635.533715186552 398.4358422471593L635.533715186552 328.87663548330636Q635.533715186552 325.1681123587516 634.2162135501969 323.60662893788646Q632.898711913842 322.02074733857023 629.2145869677382 322.02074733857023L629.2145869677382 322.02074733857023Q629.01940154013 317.45828796822985 631.581210277487 314.994071944677Q634.1186208363929 312.5298559211242 638.8762656343415 312.5298559211242L638.8762656343415 312.5298559211242Q645.9029410282346 312.5298559211242 647.659609876708 319.5565313150174L647.659609876708 319.5565313150174Q652.0512819978912 312.5298559211242 660.1270790651783 312.5298559211242L660.1270790651783 312.5298559211242Q674.5220043512791 312.5298559211242 674.5220043512791 326.41241945975355L674.5220043512791 326.41241945975355L674.5220043512791 343.97910794448666Q674.5220043512791 346.95568571551087 670.301119479253 348.0048073889047L670.301119479253 348.0048073889047Q668.2028761324653 348.7123545639842 665.8362528227166 348.7123545639842Q663.4696295129678 348.7123545639842 661.1762007385721 348.1999928165128L661.1762007385721 348.1999928165128Q661.7129606644945 344.3206824428009 661.7129606644945 339.9290103216176L661.7129606644945 339.9290103216176L661.7129606644945 330.9748788300939Q661.7129606644945 325.1681123587516 656.4429541190746 325.1681123587516L656.4429541190746 325.1681123587516Q653.9787380955217 325.1681123587516 651.8560965702832 327.4615411331473Q649.7578532234957 329.75496990754306 648.7087315501018 332.5607604294101L648.7087315501018 332.5607604294101ZM708.7770468965086 362.5949181026135L700.3596753309073 368.2064991463477Q694.552908859565 372.0858095200596 694.552908859565 381.1375337253874Q694.552908859565 390.16485975226414 700.0912953679461 390.16485975226414Q705.6296818763273 390.16485975226414 708.7770468965086 383.8457315334504L708.7770468965086 383.8457315334504L708.7770468965086 362.5949181026135ZM702.2871314285378 312.5298559211242L702.2871314285378 312.5298559211242Q721.9520632600585 312.5298559211242 721.9520632600585 329.9257571567002L721.9520632600585 329.9257571567002L721.9520632600585 385.7731876310808Q721.9520632600585 389.4817107556356 723.2695648964135 391.0431941765008Q724.5870665327684 392.62907577581694 728.2711914788722 392.62907577581694L728.2711914788722 392.62907577581694Q728.4663769064804 397.1915351461574 725.9045681691234 399.6557511697102Q723.3671576102175 402.11996719326305 718.609512812269 402.11996719326305L718.609512812269 402.11996719326305Q711.2412629200614 402.11996719326305 709.6553813207453 396.679173398686L709.6553813207453 396.679173398686Q704.2145875261682 402.11996719326305 696.8463376339607 402.11996719326305Q689.4536895633022 402.11996719326305 685.062017442119 396.50838614952886Q680.6703453209357 390.87240692734366 680.6703453209357 381.38151550989755L680.6703453209357 381.38151550989755Q680.6703453209357 366.98659022379684 692.7962400110918 359.6183403315893L692.7962400110918 359.6183403315893L708.7770468965086 350.12744891414326L708.7770468965086 331.14566607925104Q708.7770468965086 323.77741618704357 701.8479642164195 323.77741618704357Q694.8944833578793 323.77741618704357 694.8944833578793 332.0240005034877L694.8944833578793 332.0240005034877L694.8944833578793 337.83076697483006L695.4312432838017 346.0773512912742Q693.137814509406 346.6141112171966 690.7711911996572 346.6141112171966Q688.4045678899084 346.6141112171966 686.3063245431208 345.90656404211705L686.3063245431208 345.90656404211705Q682.0854396710947 344.8574423687233 682.0854396710947 341.8564664192481L682.0854396710947 341.8564664192481L682.0854396710947 327.4615411331473Q682.0854396710947 320.43486573925406 687.6238261794758 316.4823608301891Q693.137814509406 312.5298559211242 702.2871314285378 312.5298559211242ZM743.2028766908953 298.3057178841806Q735.6638395495307 298.3057178841806 735.6638395495307 288.27806654081206Q735.6638395495307 278.2748133758946 743.2028766908953 278.2748133758946Q750.766312010711 278.2748133758946 750.766312010711 288.27806654081206Q750.766312010711 298.3057178841806 743.2028766908953 298.3057178841806ZM732.3212891017412 314.28652476959746L732.3212891017412 314.28652476959746L749.8879775864743 314.28652476959746L749.8879775864743 385.7731876310808Q749.8879775864743 389.4817107556356 751.2054792228294 391.0431941765008Q752.5229808591843 392.62907577581694 756.207105805288 392.62907577581694L756.207105805288 392.62907577581694Q756.3778930544452 397.1915351461574 753.8404824955393 399.6557511697102Q751.3030719366334 402.11996719326305 746.3746398895278 402.11996719326305Q741.4462078424219 402.11996719326305 739.0795845326733 399.14338942223884Q736.7129612229245 396.1424134727636 736.7129612229245 389.2865253280275L736.7129612229245 389.2865253280275L736.7129612229245 324.8265378604373L731.2721674283474 325.704872284674Q730.0278603273455 321.1424129143336 730.0278603273455 317.70226975274005Q730.0278603273455 314.28652476959746 732.3212891017412 314.28652476959746ZM778.5314390879697 330.0965444058573L778.5314390879697 385.968373058689Q778.5314390879697 394.5565318734474 779.7513480105206 400.3632983447897L779.7513480105206 400.3632983447897Q774.4813414651007 401.07084551986924 768.3330004954441 401.07084551986924L768.3330004954441 401.07084551986924Q765.3564227244199 401.07084551986924 765.3564227244199 398.4358422471593L765.3564227244199 398.4358422471593L765.3564227244199 328.87663548330636Q765.3564227244199 325.1681123587516 764.0389210880649 323.60662893788646Q762.72141945171 322.02074733857023 759.0128963271551 322.02074733857023L759.0128963271551 322.02074733857023Q758.842109077998 317.45828796822985 761.4039178153549 314.994071944677Q763.9413283742608 312.5298559211242 769.552909417995 312.5298559211242Q775.1888886401803 312.5298559211242 777.6531046637331 317.9706497157012L777.6531046637331 317.9706497157012Q783.4354729566244 312.5298559211242 790.1937683875565 312.5298559211242Q796.9764619969394 312.5298559211242 801.0997541551616 316.92152804230744Q805.2230463133836 321.3132001634907 805.2230463133836 329.38899723077776L805.2230463133836 329.38899723077776L805.2230463133836 385.7731876310808Q805.2230463133836 389.4817107556356 806.5405479497385 391.0431941765008Q807.8580495860936 392.62907577581694 811.5421745321974 392.62907577581694L811.5421745321974 392.62907577581694Q811.7129617813545 397.1915351461574 809.1755512224486 399.6557511697102Q806.6381406635427 402.11996719326305 801.709708616437 402.11996719326305Q796.7812765693313 402.11996719326305 794.4146532595826 399.14338942223884Q792.0480299498338 396.1424134727636 792.0480299498338 389.2865253280275L792.0480299498338 389.2865253280275L792.0480299498338 330.4381189041715Q792.0480299498338 324.6557506112802 786.0704762293343 324.6557506112802L786.0704762293343 324.6557506112802Q781.1664423606796 324.6557506112802 778.5314390879697 330.0965444058573L778.5314390879697 330.0965444058573ZM872.8547969796061 384.21170421021566L872.8547969796061 328.68145005569824Q872.8547969796061 322.02074733857023 871.6348880570553 314.28652476959746L871.6348880570553 314.28652476959746Q876.9048946024752 313.57897759451794 883.0532355721317 313.57897759451794L883.0532355721317 313.57897759451794Q886.029813343156 313.57897759451794 886.029813343156 316.2139808672279L886.029813343156 316.2139808672279L886.029813343156 383.5041570351362Q886.029813343156 392.2875012775027 880.4914268347748 397.1915351461574Q874.9530403263936 402.11996719326305 865.9257142995169 402.11996719326305Q856.8739900941891 402.11996719326305 852.1163452962406 397.3867205737655L852.1163452962406 397.3867205737655Q847.3830986767431 402.11996719326305 838.5021617205725 402.11996719326305Q829.6456229428529 402.11996719326305 824.5464036465901 397.5575078229227Q819.4471843503272 392.99504845258224 819.4471843503272 384.21170421021566L819.4471843503272 384.21170421021566L819.4471843503272 328.87663548330636Q819.4471843503272 325.1681123587516 818.1296827139722 323.60662893788646Q816.8121810776172 322.02074733857023 813.1280561315135 322.02074733857023L813.1280561315135 322.02074733857023Q812.9572688823564 317.62907521738697 815.6654666904194 315.06726648003007Q818.3980626769335 312.5298559211242 823.3264947240391 312.5298559211242Q828.2305285926939 312.5298559211242 830.4263646532854 315.3356464429913Q832.6222007138771 318.14143696485837 832.6222007138771 324.6557506112802L832.6222007138771 324.6557506112802L832.6222007138771 384.21170421021566Q832.6222007138771 387.18828198123987 834.5496568115075 389.2133307926744Q836.501511087589 391.23837960410896 839.3073016094561 391.23837960410896Q842.1130921313231 391.23837960410896 844.1381409427577 389.55490529098864Q846.1631897541922 387.8958291563194 846.1631897541922 385.26082588360947L846.1631897541922 385.26082588360947L846.1631897541922 328.68145005569824Q846.1631897541922 322.02074733857023 844.9188826531903 314.28652476959746L844.9188826531903 314.28652476959746Q850.1888891986102 313.57897759451794 856.3372301682668 313.57897759451794L856.3372301682668 313.57897759451794Q859.338206117742 313.57897759451794 859.338206117742 316.2139808672279L859.338206117742 316.2139808672279L859.338206117742 385.26082588360947Q859.338206117742 387.8958291563194 861.1680695015684 389.55490529098864Q863.0223310638457 391.23837960410896 865.99890883487 391.23837960410896Q868.9998847843452 391.23837960410896 870.9273408819756 389.2133307926744Q872.8547969796061 387.18828198123987 872.8547969796061 384.21170421021566L872.8547969796061 384.21170421021566ZM897.6189481073897 384.21170421021566L897.6189481073897 384.21170421021566L897.6189481073897 331.14566607925104Q897.6189481073897 322.3623218368845 903.0597419019666 317.45828796822985Q908.5249338749948 312.5298559211242 917.8206398648327 312.5298559211242Q927.1407440331217 312.5298559211242 932.3131578647376 317.09231529146456Q937.5099698748044 321.654774661805 937.5099698748044 330.4381189041715L937.5099698748044 330.4381189041715L937.5099698748044 383.5041570351362Q937.5099698748044 392.2875012775027 931.9715833664231 397.1915351461574Q926.433196858042 402.11996719326305 917.1130926897531 402.11996719326305Q907.8173866999152 402.11996719326305 902.7181674036524 397.5575078229227Q897.6189481073897 392.99504845258224 897.6189481073897 384.21170421021566ZM910.7939644709395 330.4381189041715L910.7939644709395 330.4381189041715L910.7939644709395 384.21170421021566Q910.7939644709395 387.18828198123987 912.7214205685699 389.2133307926744Q914.6732748446514 391.23837960410896 917.5522599018715 391.23837960410896Q920.4556431375427 391.23837960410896 922.3830992351731 389.2133307926744Q924.3349535112545 387.18828198123987 924.3349535112545 384.21170421021566L924.3349535112545 384.21170421021566L924.3349535112545 330.4381189041715Q924.3349535112545 327.4615411331473 922.3830992351731 325.4364923217128Q920.4556431375427 323.4114435102783 917.5522599018715 323.4114435102783Q914.6732748446514 323.4114435102783 912.7214205685699 325.4364923217128Q910.7939644709395 327.4615411331473 910.7939644709395 330.4381189041715ZM964.0307898510612 332.5607604294101L964.0307898510612 385.968373058689Q964.0307898510612 394.3857446242903 965.2506987736122 400.0217238464755L965.2506987736122 400.0217238464755Q959.9806922281921 401.07084551986924 953.8323512585356 401.07084551986924L953.8323512585356 401.07084551986924Q950.8557734875114 401.07084551986924 950.8557734875114 398.4358422471593L950.8557734875114 398.4358422471593L950.8557734875114 328.87663548330636Q950.8557734875114 325.1681123587516 949.5382718511564 323.60662893788646Q948.2207702148014 322.02074733857023 944.5366452686976 322.02074733857023L944.5366452686976 322.02074733857023Q944.3414598410894 317.45828796822985 946.9032685784464 314.994071944677Q949.4406791373523 312.5298559211242 954.1983239353008 312.5298559211242L954.1983239353008 312.5298559211242Q961.2249993291941 312.5298559211242 962.9816681776674 319.5565313150174L962.9816681776674 319.5565313150174Q967.3733402988506 312.5298559211242 975.4491373661376 312.5298559211242L975.4491373661376 312.5298559211242Q989.8440626522383 312.5298559211242 989.8440626522383 326.41241945975355L989.8440626522383 326.41241945975355L989.8440626522383 343.97910794448666Q989.8440626522383 346.95568571551087 985.6231777802124 348.0048073889047L985.6231777802124 348.0048073889047Q983.5249344334247 348.7123545639842 981.158311123676 348.7123545639842Q978.7916878139272 348.7123545639842 976.4982590395315 348.1999928165128L976.4982590395315 348.1999928165128Q977.0350189654539 344.3206824428009 977.0350189654539 339.9290103216176L977.0350189654539 339.9290103216176L977.0350189654539 330.9748788300939Q977.0350189654539 325.1681123587516 971.7650124200339 325.1681123587516L971.7650124200339 325.1681123587516Q969.3007963964811 325.1681123587516 967.1781548712426 327.4615411331473Q965.0799115244549 329.75496990754306 964.0307898510612 332.5607604294101L964.0307898510612 332.5607604294101ZM1025.34341229847 349.07832724074945L1025.34341229847 328.68145005569824Q1025.34341229847 322.02074733857023 1024.099105197468 314.28652476959746L1024.099105197468 314.28652476959746Q1029.369111742888 313.57897759451794 1035.5174527125446 313.57897759451794L1035.5174527125446 313.57897759451794Q1038.5184286620197 313.57897759451794 1038.5184286620197 316.2139808672279L1038.5184286620197 316.2139808672279L1038.5184286620197 348.1999928165128Q1038.5184286620197 356.2757898837998 1033.2484221165998 361.00903650329735L1033.2484221165998 361.00903650329735Q1038.5184286620197 365.4007086244806 1038.5184286620197 373.8424783685329L1038.5184286620197 373.8424783685329L1038.5184286620197 385.7731876310808Q1038.5184286620197 389.4817107556356 1039.8359302983747 391.0431941765008Q1041.1534319347297 392.62907577581694 1044.8375568808335 392.62907577581694L1044.8375568808335 392.62907577581694Q1045.0083441299907 397.02074789700026 1042.2757481434767 399.58255663435716Q1039.5675503354137 402.11996719326305 1034.639118288308 402.11996719326305Q1029.7350844196533 402.11996719326305 1027.5392483590615 399.31417667139596Q1025.34341229847 396.50838614952886 1025.34341229847 389.994072503107L1025.34341229847 389.994072503107L1025.34341229847 373.6716911193758Q1025.34341229847 370.49992792074346 1023.3183634870354 368.572471823113Q1021.2933146756009 366.64501572548255 1018.3167369045767 366.64501572548255L1018.3167369045767 366.64501572548255L1011.8024232581548 366.64501572548255L1011.8024232581548 385.968373058689Q1011.8024232581548 394.3857446242903 1013.0467303591568 400.0217238464755L1013.0467303591568 400.0217238464755Q1007.7767238137368 401.07084551986924 1001.6283828440803 401.07084551986924L1001.6283828440803 401.07084551986924Q998.627406894605 401.07084551986924 998.627406894605 398.4358422471593L998.627406894605 398.4358422471593L998.627406894605 291.44982973944445Q998.627406894605 286.1798231940245 997.0415252952889 280.7390293994474L997.0415252952889 280.7390293994474Q1002.3115318407088 277.9332388775804 1008.2890855612081 277.9332388775804L1008.2890855612081 277.9332388775804Q1011.8024232581548 277.9332388775804 1011.8024232581548 280.5682421502903L1011.8024232581548 280.5682421502903L1011.8024232581548 356.1050026346427L1018.658311402891 356.1050026346427Q1021.2933146756009 356.1050026346427 1023.3183634870354 354.0799538232082Q1025.34341229847 352.05490501177366 1025.34341229847 349.07832724074945L1025.34341229847 349.07832724074945ZM1079.8001466011426 383.8457315334504L1079.8001466011426 328.68145005569824Q1079.8001466011426 322.02074733857023 1078.5558395001408 314.28652476959746L1078.5558395001408 314.28652476959746Q1083.8258460455606 313.57897759451794 1089.974187015217 313.57897759451794L1089.974187015217 313.57897759451794Q1092.9751629646926 313.57897759451794 1092.9751629646926 316.2139808672279L1092.9751629646926 316.2139808672279L1092.9751629646926 385.7731876310808Q1092.9751629646926 389.4817107556356 1094.2926646010474 391.0431941765008Q1095.6101662374024 392.62907577581694 1099.2942911835062 392.62907577581694L1099.2942911835062 392.62907577581694Q1099.4650784326632 397.1915351461574 1096.9276678737574 399.6557511697102Q1094.3658591364006 402.11996719326305 1089.632612516903 402.11996719326305L1089.632612516903 402.11996719326305Q1082.6059371230097 402.11996719326305 1080.6784810253794 396.679173398686L1080.6784810253794 396.679173398686Q1075.2132890523512 402.11996719326305 1068.3817990860662 402.11996719326305Q1061.52591094133 402.11996719326305 1057.305026069304 397.4599151091186Q1053.0841411972776 392.79986302497406 1053.0841411972776 384.21170421021566L1053.0841411972776 384.21170421021566L1053.0841411972776 328.87663548330636Q1053.0841411972776 325.1681123587516 1051.7666395609226 323.60662893788646Q1050.4491379245676 322.02074733857023 1046.765012978464 322.02074733857023L1046.765012978464 322.02074733857023Q1046.5942257293068 317.62907521738697 1049.3024235373698 315.06726648003007Q1052.0350195238839 312.5298559211242 1056.9634515709895 312.5298559211242Q1061.8674854396443 312.5298559211242 1064.0633215002358 315.3356464429913Q1066.2591575608276 318.14143696485837 1066.2591575608276 324.6557506112802L1066.2591575608276 324.6557506112802L1066.2591575608276 384.01651878260753Q1066.2591575608276 390.16485975226414 1071.3583768570902 390.16485975226414L1071.3583768570902 390.16485975226414Q1073.9933801298002 390.16485975226414 1076.360003439549 388.16420911928066Q1078.7266267492978 386.1391603078461 1079.8001466011426 383.8457315334504L1079.8001466011426 383.8457315334504ZM1121.5942262877368 330.8040915809368L1121.5942262877368 389.1157380788703L1128.450114432473 389.1157380788703Q1131.4266922034972 389.1157380788703 1133.2809537657745 387.28587469504396Q1135.1352153280518 385.4316131327666 1135.1352153280518 382.4550353617423L1135.1352153280518 382.4550353617423L1135.1352153280518 330.6333043317797Q1135.1352153280518 324.4849633621231 1130.0359960317892 324.4849633621231L1130.0359960317892 324.4849633621231Q1127.4009927590791 324.4849633621231 1125.0343694493304 326.4856139951066Q1122.6433479611305 328.5106628065411 1121.5942262877368 330.8040915809368L1121.5942262877368 330.8040915809368ZM1128.1085399341587 400.3632983447897L1121.5942262877368 400.3632983447897L1121.5942262877368 414.4166491325762L1122.8385333887386 426.0057838968099Q1118.0808885907902 427.9332399944403 1111.9325476211334 427.9332399944403L1111.9325476211334 427.9332399944403Q1108.4192099241868 427.9332399944403 1108.4192099241868 425.29823672173035L1108.4192099241868 425.29823672173035L1108.4192099241868 328.87663548330636Q1108.4192099241868 325.1681123587516 1107.101708287832 323.60662893788646Q1105.784206651477 322.02074733857023 1102.1000817053732 322.02074733857023L1102.1000817053732 322.02074733857023Q1101.9292944562162 317.45828796822985 1104.466705015122 314.994071944677Q1107.0285137524788 312.5298559211242 1112.7376875100172 312.5298559211242Q1118.4468612675555 312.5298559211242 1120.7158918635 317.9706497157012L1120.7158918635 317.9706497157012Q1126.156685658077 312.5298559211242 1133.0125738028132 312.5298559211242Q1139.8684619475493 312.5298559211242 1144.0893468195754 317.18990800526865Q1148.3102316916018 321.8499600894131 1148.3102316916018 330.4381189041715L1148.3102316916018 330.4381189041715L1148.3102316916018 381.74748818666285Q1148.3102316916018 390.5308324290294 1142.8450397185736 395.43486629768404Q1137.4042459239968 400.3632983447897 1128.1085399341587 400.3632983447897L1128.1085399341587 400.3632983447897Z " fill="#abc8e4" transform="matrix(0.7619892848984031,0,0,0.7619892848984031,0,31.068691894160338)"/></g></svg>